<svg width="576" height="439" viewBox="0 0 576 439" fill="none" xmlns="http://www.w3.org/2000/svg">
<path fill-rule="evenodd" clip-rule="evenodd" d="M145.816 237.356H149.692V256.421H145.816V237.356Z" fill="#B30B17"/>
<path fill-rule="evenodd" clip-rule="evenodd" d="M162.355 256.421V237.356H167.697L171.356 247.24C171.781 248.394 172.159 249.53 172.482 250.603C172.82 251.712 173.092 252.783 173.318 253.839C173.223 253.035 173.143 252.162 173.097 251.263C173.053 250.375 173.015 249.367 173.015 248.333L172.765 237.356H176.473V256.421H171.284L167.407 245.974C167.122 245.198 166.817 244.253 166.487 243.159C166.156 242.068 165.808 240.864 165.476 239.551C165.571 240.754 165.643 241.805 165.706 242.718C165.748 243.634 165.776 244.41 165.784 245.058L166.006 256.421H162.355Z" fill="#B30B17"/>
<path fill-rule="evenodd" clip-rule="evenodd" d="M192.091 256.421V240.469H187.752V237.356H200.524V240.469H196.172V256.421H192.091Z" fill="#B30B17"/>
<path fill-rule="evenodd" clip-rule="evenodd" d="M211.682 256.421V237.356H221.944V240.273H215.675V244.856H221.445V247.781H215.675V253.323H222.174V256.421H211.682Z" fill="#B30B17"/>
<path fill-rule="evenodd" clip-rule="evenodd" d="M238.105 245.591H239.074C240.14 245.591 240.873 245.388 241.29 244.97C241.706 244.57 241.916 243.862 241.916 242.864C241.916 241.88 241.726 241.21 241.343 240.859C240.977 240.491 240.24 240.309 239.164 240.309H238.105V245.591ZM239.752 237.356C242.086 237.356 243.67 237.708 244.503 238.422C245.337 239.123 245.752 240.411 245.752 242.245C245.752 243.714 245.542 244.813 245.116 245.541C244.694 246.246 243.978 246.737 242.969 246.982C244.108 247.22 244.889 247.618 245.301 248.186C245.719 248.759 245.925 249.862 245.925 251.494C245.925 251.629 245.917 251.759 245.905 251.992C245.899 252.187 245.889 252.352 245.889 252.45C245.889 253.335 245.927 254.064 246.01 254.704C246.087 255.34 246.22 255.89 246.375 256.421H242.229C242.051 255.78 241.958 254.504 241.939 252.63C241.931 251.982 241.921 251.476 241.916 251.124C241.896 250.177 241.719 249.52 241.383 249.142C241.061 248.736 240.525 248.559 239.752 248.559H238.105V256.421H234.111V237.356H239.752Z" fill="#B30B17"/>
<path fill-rule="evenodd" clip-rule="evenodd" d="M258.197 256.421V237.356H263.535L267.183 247.24C267.619 248.394 267.996 249.53 268.307 250.603C268.637 251.712 268.928 252.783 269.15 253.839C269.06 253.035 268.977 252.162 268.935 251.263C268.887 250.375 268.855 249.367 268.855 248.333L268.612 237.356H272.303V256.421H267.121L263.25 245.974C262.962 245.198 262.642 244.253 262.326 243.159C261.998 242.068 261.653 240.864 261.313 239.551C261.405 240.754 261.473 241.805 261.533 242.718C261.583 243.634 261.618 244.41 261.626 245.058L261.854 256.421H258.197Z" fill="#B30B17"/>
<path fill-rule="evenodd" clip-rule="evenodd" d="M289.224 249.239H293.298L291.321 240.987L289.224 249.239ZM295.042 256.421L294.016 252.147H288.493L287.502 256.421H283.512L288.851 237.356H293.926L299.241 256.421H295.042Z" fill="#B30B17"/>
<path fill-rule="evenodd" clip-rule="evenodd" d="M311.895 256.421V240.469H307.551V237.356H320.347V240.469H315.976V256.421H311.895Z" fill="#B30B17"/>
<path fill-rule="evenodd" clip-rule="evenodd" d="M331.537 237.356H335.404V256.421H331.537V237.356Z" fill="#B30B17"/>
<path fill-rule="evenodd" clip-rule="evenodd" d="M351.753 246.83C351.753 249.64 351.948 251.494 352.307 252.39C352.639 253.298 353.28 253.733 354.163 253.733C355.106 253.733 355.755 253.313 356.125 252.442C356.46 251.564 356.648 249.64 356.648 246.652C356.648 243.992 356.46 242.235 356.133 241.372C355.76 240.509 355.137 240.086 354.21 240.086C353.293 240.086 352.644 240.517 352.312 241.402C351.951 242.276 351.753 244.094 351.753 246.83ZM354.218 256.686C353.357 256.686 352.536 256.576 351.773 256.338C351.02 256.131 350.405 255.8 349.952 255.407C349.171 254.719 348.605 253.723 348.265 252.44C347.927 251.151 347.75 249.232 347.75 246.672C347.75 244.682 347.87 243.141 348.07 242.028C348.273 240.922 348.61 240.024 349.096 239.323C349.539 238.625 350.23 238.077 351.103 237.701C351.984 237.321 353.019 237.126 354.196 237.126C355.106 237.126 355.952 237.238 356.716 237.479C357.456 237.714 358.079 238.054 358.562 238.472C359.313 239.13 359.848 240.054 360.161 241.225C360.474 242.403 360.652 244.135 360.652 246.437C360.652 248.829 360.547 250.575 360.346 251.699C360.131 252.798 359.771 253.728 359.305 254.467C358.852 255.172 358.157 255.733 357.261 256.118C356.4 256.511 355.379 256.686 354.218 256.686Z" fill="#B30B17"/>
<path fill-rule="evenodd" clip-rule="evenodd" d="M372.965 256.421V237.356H378.312L381.971 247.24C382.391 248.394 382.779 249.53 383.097 250.603C383.424 251.712 383.707 252.783 383.937 253.839C383.84 253.035 383.762 252.162 383.712 251.263C383.65 250.375 383.632 249.367 383.632 248.333L383.395 237.356H387.08V256.421H381.898L378.027 245.974C377.734 245.198 377.417 244.253 377.112 243.159C376.781 242.068 376.436 240.864 376.09 239.551C376.175 240.754 376.265 241.805 376.328 242.718C376.365 243.634 376.398 244.41 376.406 245.058L376.616 256.421H372.965Z" fill="#B30B17"/>
<path fill-rule="evenodd" clip-rule="evenodd" d="M403.996 249.239H408.077L406.091 240.987L403.996 249.239ZM409.819 256.421L408.79 252.147H403.283L402.284 256.421H398.283L403.628 237.356H408.723L414.013 256.421H409.819Z" fill="#B30B17"/>
<path fill-rule="evenodd" clip-rule="evenodd" d="M425.246 256.421V237.356H429.225V253.045H435.062V256.421H425.246Z" fill="#B30B17"/>
<path fill-rule="evenodd" clip-rule="evenodd" d="M90.585 320.176H98.6797C102.996 320.176 106.166 319.543 108.176 318.29C110.198 317.056 111.204 315.117 111.204 312.472C111.204 309.857 110.21 307.91 108.241 306.644C106.259 305.418 103.241 304.783 99.1726 304.783H90.585V320.176ZM90.585 296.47H100.166C103.609 296.47 106.149 295.887 107.808 294.701C109.455 293.53 110.278 291.693 110.278 289.225C110.278 287.161 109.402 285.558 107.673 284.441C105.924 283.34 103.424 282.78 100.166 282.78H90.585V296.47ZM74.2852 328.612V274.48H102.964C110.996 274.48 116.966 275.571 120.882 277.735C124.784 279.93 126.741 283.235 126.741 287.667C126.741 291.295 125.534 294.293 123.105 296.592C120.687 298.895 117.397 300.176 113.245 300.448C117.9 300.982 121.508 302.373 124.1 304.657C126.685 306.907 127.971 309.822 127.971 313.363C127.971 318.665 126.005 322.544 122.091 324.978C118.173 327.415 111.957 328.612 103.454 328.612H74.2852Z" fill="#004B93"/>
<path fill-rule="evenodd" clip-rule="evenodd" d="M189.18 274.48V308.444C189.18 316.03 187.035 321.427 182.741 324.683C178.445 327.926 171.389 329.558 161.567 329.558C152.106 329.558 145.147 327.961 140.661 324.778C136.186 321.613 133.949 316.693 133.949 310.032V274.48H150.873V307.089C150.873 313.285 151.656 317.224 153.22 318.893C154.801 320.567 157.649 321.395 161.78 321.395C165.758 321.395 168.526 320.462 170.082 318.6C171.621 316.723 172.412 312.89 172.412 307.089V274.48H189.18Z" fill="#004B93"/>
<path fill-rule="evenodd" clip-rule="evenodd" d="M194.616 311.857H211.886V313.285C211.886 316.091 212.587 318.094 214.006 319.278C215.42 320.492 217.779 321.085 221.084 321.085C223.698 321.085 225.767 320.557 227.288 319.493C228.804 318.43 229.578 316.974 229.578 315.132C229.578 312.572 225.984 309.724 218.81 306.574L217.757 306.126C213.988 304.512 210.953 303.171 208.694 302.145C206.439 301.077 204.75 300.225 203.659 299.545C200.676 297.751 198.642 296.05 197.543 294.463C196.43 292.879 195.887 290.915 195.887 288.595C195.887 284.041 198.201 280.435 202.856 277.735C207.495 275.056 213.735 273.711 221.593 273.711C229.7 273.711 235.805 274.968 239.902 277.46C243.993 279.957 246.04 283.661 246.04 288.595V290.016H229.27V289.726C229.27 287.171 228.577 285.255 227.198 283.961C225.827 282.677 223.765 282.024 221.015 282.024C218.512 282.024 216.521 282.512 215.032 283.518C213.548 284.521 212.807 285.892 212.807 287.574C212.807 290.472 217.499 293.777 226.88 297.503C229.305 298.502 231.166 299.265 232.493 299.806C237.798 302.065 241.481 304.222 243.545 306.279C245.617 308.328 246.646 310.815 246.646 313.673C246.646 318.928 244.336 322.891 239.717 325.554C235.102 328.211 228.259 329.558 219.203 329.558C210.693 329.558 204.445 328.277 200.471 325.739C196.49 323.196 194.498 319.206 194.498 313.77C194.498 313.59 194.513 313.262 194.558 312.843C194.6 312.432 194.616 312.134 194.616 311.857Z" fill="#004B93"/>
<path fill-rule="evenodd" clip-rule="evenodd" d="M252.232 274.48H268.84V328.612H252.232V274.48Z" fill="#004B93"/>
<path fill-rule="evenodd" clip-rule="evenodd" d="M276.6 328.612V274.48H299.375L314.914 302.598C316.773 305.906 318.38 309.074 319.779 312.206C321.18 315.31 322.376 318.385 323.362 321.395C322.951 319.068 322.627 316.611 322.401 314.041C322.193 311.438 322.083 308.663 322.083 305.673L321.075 274.48H336.747V328.612H314.592L298.109 299.002C296.885 296.77 295.564 294.09 294.161 291.015C292.749 287.907 291.316 284.464 289.834 280.708C290.245 284.149 290.564 287.161 290.785 289.744C291.02 292.341 291.138 294.54 291.178 296.345L292.143 328.612H276.6Z" fill="#004B93"/>
<path fill-rule="evenodd" clip-rule="evenodd" d="M344.408 328.612V274.48H388.2V282.78H361.493V295.699H386.043V304.004H361.493V319.858H389.163V328.612H344.408Z" fill="#004B93"/>
<path fill-rule="evenodd" clip-rule="evenodd" d="M391.66 311.857H408.933V313.285C408.933 316.091 409.629 318.094 411.03 319.278C412.456 320.492 414.806 321.085 418.136 321.085C420.741 321.085 422.801 320.557 424.332 319.493C425.836 318.43 426.634 316.974 426.634 315.132C426.634 312.572 423.023 309.724 415.859 306.574L414.786 306.126C411.008 304.512 407.992 303.171 405.725 302.145C403.49 301.077 401.797 300.225 400.703 299.545C397.71 297.751 395.676 296.05 394.577 294.463C393.486 292.879 392.931 290.915 392.931 288.595C392.931 284.041 395.24 280.435 399.887 277.735C404.529 275.056 410.792 273.711 418.635 273.711C426.742 273.711 432.845 274.968 436.943 277.46C441.03 279.957 443.082 283.661 443.082 288.595V290.016H426.309V289.726C426.309 287.171 425.636 285.255 424.267 283.961C422.893 282.677 420.812 282.024 418.057 282.024C415.551 282.024 413.555 282.512 412.081 283.518C410.582 284.521 409.851 285.892 409.851 287.574C409.851 290.472 414.561 293.777 423.919 297.503C426.339 298.502 428.213 299.265 429.524 299.806C434.844 302.065 438.51 304.222 440.592 306.279C442.646 308.328 443.698 310.815 443.698 313.673C443.698 318.928 441.377 322.891 436.766 325.554C432.122 328.211 425.298 329.558 416.262 329.558C407.724 329.558 401.479 328.277 397.507 325.739C393.529 323.196 391.537 319.206 391.537 313.77C391.537 313.59 391.55 313.262 391.595 312.843C391.637 312.432 391.66 312.134 391.66 311.857Z" fill="#004B93"/>
<path fill-rule="evenodd" clip-rule="evenodd" d="M446.935 311.857H464.191V313.285C464.191 316.091 464.896 318.094 466.305 319.278C467.742 320.492 470.089 321.085 473.399 321.085C476.004 321.085 478.081 320.557 479.608 319.493C481.126 318.43 481.889 316.974 481.889 315.132C481.889 312.572 478.289 309.724 471.099 306.574L470.072 306.126C466.28 304.512 463.278 303.171 460.995 302.145C458.738 301.077 457.052 300.225 455.968 299.545C452.993 297.751 450.946 296.05 449.838 294.463C448.739 292.879 448.192 290.915 448.192 288.595C448.192 284.041 450.524 280.435 455.168 277.735C459.796 275.056 466.04 273.711 473.915 273.711C482.004 273.711 488.103 274.968 492.189 277.46C496.286 279.957 498.337 283.661 498.337 288.595V290.016H481.575V289.726C481.575 287.171 480.886 285.255 479.51 283.961C478.131 282.677 476.077 282.024 473.314 282.024C470.809 282.024 468.815 282.512 467.361 283.518C465.862 284.521 465.119 285.892 465.119 287.574C465.119 290.472 469.808 293.777 479.2 297.503C481.607 298.502 483.491 299.265 484.802 299.806C490.095 302.065 493.798 304.222 495.87 306.279C497.922 308.328 498.962 310.815 498.962 313.673C498.962 318.928 496.653 322.891 492.019 325.554C487.399 328.211 480.553 329.558 471.5 329.558C463.008 329.558 456.766 328.277 452.776 325.739C448.807 323.196 446.803 319.206 446.803 313.77C446.803 313.59 446.832 313.262 446.87 312.843C446.92 312.432 446.935 312.134 446.935 311.857Z" fill="#004B93"/>
<path fill-rule="evenodd" clip-rule="evenodd" d="M90.0496 374.659C90.0972 374.957 90.1348 375.28 90.1497 375.609C90.1645 375.96 90.1794 376.478 90.1794 377.156C90.1794 382.554 88.4905 386.712 85.11 389.652C81.7372 392.57 76.9204 394.032 70.6572 394.032C67.7666 394.032 65.0593 393.699 62.5646 393.053C60.0494 392.41 58.0406 391.469 56.5362 390.356C53.9614 388.404 52.13 385.684 51.0461 382.151C49.978 378.59 49.4297 372.837 49.4297 364.935C49.4297 359.452 49.7701 355.241 50.4412 352.241C51.0965 349.236 52.2172 346.738 53.7762 344.757C55.3353 342.719 57.5597 341.16 60.4274 340.1C63.3002 339.041 66.6906 338.496 70.579 338.496C76.9225 338.496 81.7096 339.902 84.9277 342.665C88.1381 345.425 89.7545 349.559 89.7545 355.021V356.064H76.6452V355.021C76.6452 352.196 76.1316 350.096 75.0832 348.712C74.0448 347.349 72.446 346.658 70.3038 346.658C67.339 346.658 65.2969 347.872 64.1833 350.291C63.0646 352.707 62.5142 358.329 62.5142 367.122C62.5142 374.526 63.0902 379.456 64.2386 381.9C65.4068 384.347 67.4716 385.571 70.479 385.571C72.6261 385.571 74.2278 384.83 75.291 383.344C76.3642 381.848 76.9104 379.573 76.9104 376.538C76.9104 376.34 76.8849 376.045 76.8572 375.617C76.8352 375.219 76.8253 374.897 76.8253 374.659H90.0496Z" fill="#004B93"/>
<path fill-rule="evenodd" clip-rule="evenodd" d="M106.066 366.083C106.066 374.016 106.642 379.26 107.8 381.783C108.962 384.318 111.026 385.571 114.026 385.571C117.136 385.571 119.278 384.347 120.452 381.905C121.631 379.461 122.206 373.993 122.206 365.523C122.206 358.016 121.638 353.069 120.474 350.619C119.313 348.19 117.221 346.968 114.201 346.968C111.119 346.968 108.996 348.212 107.815 350.709C106.647 353.172 106.066 358.307 106.066 366.083ZM114.146 394.032C111.251 394.032 108.561 393.699 106.064 393.053C103.557 392.41 101.555 391.469 100.043 390.356C97.4736 388.404 95.6244 385.606 94.508 381.943C93.3893 378.282 92.834 372.812 92.834 365.588C92.834 359.958 93.1596 355.579 93.8504 352.443C94.5306 349.261 95.6492 346.696 97.2055 344.757C98.7297 342.737 100.941 341.188 103.845 340.11C106.744 339.051 110.153 338.496 114.049 338.496C117.064 338.496 119.806 338.836 122.304 339.524C124.783 340.18 126.821 341.126 128.414 342.324C130.869 344.183 132.633 346.809 133.699 350.147C134.755 353.475 135.285 358.409 135.285 364.935C135.285 371.719 134.948 376.685 134.267 379.848C133.584 383.011 132.44 385.634 130.824 387.703C129.302 389.71 127.083 391.272 124.166 392.382C121.247 393.486 117.912 394.032 114.146 394.032Z" fill="#004B93"/>
<path fill-rule="evenodd" clip-rule="evenodd" d="M140.312 393.266V339.126H157.846L169.79 367.245C171.189 370.535 172.445 373.726 173.536 376.854C174.619 379.959 175.535 383.039 176.301 386.037C176.008 383.737 175.762 381.268 175.603 378.675C175.43 376.107 175.35 373.308 175.35 370.325L174.614 339.126H186.763V393.266H169.527L156.868 363.638C155.947 361.409 154.941 358.767 153.882 355.654C152.822 352.538 151.731 349.115 150.607 345.365C150.92 348.803 151.148 351.798 151.318 354.405C151.473 356.995 151.573 359.198 151.598 360.999L152.298 393.266H140.312Z" fill="#004B93"/>
<path fill-rule="evenodd" clip-rule="evenodd" d="M192.744 393.266V339.126H225.046V347.424H205.971V360.364H224.158V368.648H205.971V393.266H192.744Z" fill="#004B93"/>
<path fill-rule="evenodd" clip-rule="evenodd" d="M229.316 393.266V339.126H263.17V347.424H242.546V360.364H261.508V368.648H242.546V384.513H263.931V393.266H229.316Z" fill="#004B93"/>
<path fill-rule="evenodd" clip-rule="evenodd" d="M280.624 362.503H283.889C287.435 362.503 289.915 361.93 291.296 360.779C292.688 359.627 293.388 357.626 293.388 354.774C293.388 352.026 292.75 350.114 291.502 349.115C290.233 348.1 287.781 347.582 284.148 347.582H280.624V362.503ZM286.197 339.126C293.869 339.126 299.111 340.127 301.876 342.129C304.631 344.141 306.02 347.787 306.02 353.049C306.02 357.195 305.301 360.308 303.907 362.375C302.502 364.432 300.154 365.811 296.879 366.514C300.625 367.167 303.152 368.306 304.516 369.947C305.872 371.576 306.557 374.702 306.557 379.363C306.557 379.663 306.533 380.116 306.495 380.717C306.447 381.335 306.433 381.785 306.433 382.08C306.433 384.55 306.562 386.68 306.84 388.442C307.098 390.211 307.518 391.832 308.102 393.266H294.457C293.851 391.506 293.526 387.936 293.463 382.554C293.443 380.719 293.408 379.303 293.378 378.3C293.298 375.61 292.705 373.726 291.616 372.635C290.533 371.526 288.706 370.966 286.197 370.966H280.624V393.266H267.547V339.126H286.197Z" fill="#004B93"/>
<path fill-rule="evenodd" clip-rule="evenodd" d="M311.264 393.266V339.126H345.115V347.424H324.486V360.364H343.461V368.648H324.486V384.513H345.87V393.266H311.264Z" fill="#004B93"/>
<path fill-rule="evenodd" clip-rule="evenodd" d="M349.494 393.266V339.126H367.04L378.994 367.245C380.413 370.535 381.646 373.726 382.73 376.854C383.823 379.959 384.739 383.039 385.492 386.037C385.207 383.737 384.962 381.268 384.801 378.675C384.626 376.107 384.552 373.308 384.552 370.325L383.806 339.126H395.967V393.266H378.721L366.072 363.638C365.147 361.409 364.151 358.767 363.082 355.654C362.004 352.538 360.913 349.115 359.809 345.365C360.112 348.803 360.352 351.798 360.497 354.405C360.685 356.995 360.767 359.198 360.8 360.999L361.503 393.266H349.494Z" fill="#004B93"/>
<path fill-rule="evenodd" clip-rule="evenodd" d="M441.608 374.659C441.678 374.957 441.723 375.28 441.738 375.609C441.749 375.96 441.751 376.478 441.751 377.156C441.751 382.554 440.044 386.712 436.686 389.652C433.316 392.57 428.502 394.032 422.228 394.032C419.348 394.032 416.64 393.699 414.141 393.053C411.624 392.41 409.616 391.469 408.11 390.356C405.536 388.404 403.701 385.684 402.622 382.151C401.567 378.59 401.014 372.837 401.014 364.935C401.014 359.452 401.349 355.241 402.017 352.241C402.678 349.236 403.788 346.738 405.36 344.757C406.904 342.719 409.136 341.16 412.014 340.1C414.884 339.041 418.252 338.496 422.153 338.496C428.502 338.496 433.281 339.902 436.496 342.665C439.714 345.425 441.333 349.559 441.333 355.021V356.064H428.221V355.021C428.221 352.196 427.708 350.096 426.664 348.712C425.636 347.349 424.024 346.658 421.883 346.658C418.912 346.658 416.868 347.872 415.754 350.291C414.646 352.707 414.09 358.329 414.09 367.122C414.09 374.526 414.669 379.456 415.832 381.9C416.96 384.347 419.045 385.571 422.063 385.571C424.2 385.571 425.796 384.83 426.852 383.344C427.943 381.848 428.491 379.573 428.491 376.538C428.491 376.34 428.481 376.045 428.459 375.617C428.399 375.219 428.394 374.897 428.394 374.659H441.608Z" fill="#004B93"/>
<path fill-rule="evenodd" clip-rule="evenodd" d="M445.473 393.266V339.126H479.331V347.424H458.702V360.364H477.692V368.648H458.702V384.513H480.097V393.266H445.473Z" fill="#004B93"/>
<path fill-rule="evenodd" clip-rule="evenodd" d="M482.113 376.51H495.41V377.945C495.41 380.749 495.958 382.752 497.047 383.93C498.145 385.136 499.959 385.749 502.534 385.749C504.551 385.749 506.142 385.194 507.341 384.142C508.507 383.074 509.098 381.633 509.098 379.786C509.098 377.201 506.355 374.346 500.83 371.236L500.017 370.802C497.079 369.159 494.742 367.838 493.011 366.776C491.266 365.718 489.968 364.878 489.112 364.192C486.8 362.395 485.238 360.706 484.388 359.095C483.529 357.518 483.099 355.562 483.099 353.214C483.099 348.688 484.881 345.079 488.474 342.382C492.077 339.687 496.919 338.361 502.984 338.361C509.245 338.361 513.959 339.602 517.122 342.087C520.283 344.586 521.875 348.308 521.875 353.214V354.673H508.947V354.365C508.947 351.803 508.41 349.894 507.349 348.608C506.273 347.314 504.681 346.658 502.539 346.658C500.595 346.658 499.066 347.161 497.902 348.175C496.747 349.161 496.174 350.514 496.174 352.226C496.174 355.149 499.792 358.434 507.036 362.143C508.903 363.124 510.346 363.889 511.372 364.467C515.468 366.714 518.324 368.874 519.932 370.92C521.514 372.992 522.337 375.45 522.337 378.305C522.337 383.567 520.55 387.538 516.982 390.193C513.391 392.853 508.119 394.197 501.14 394.197C494.534 394.197 489.715 392.931 486.659 390.406C483.562 387.839 482.016 383.845 482.016 378.433C482.016 378.237 482.04 377.914 482.07 377.486C482.103 377.086 482.113 376.733 482.113 376.51Z" fill="#004B93"/>
<path fill-rule="evenodd" clip-rule="evenodd" d="M216.174 425.553H205.057V414.445H216.174V425.553Z" fill="#B30B17"/>
<path fill-rule="evenodd" clip-rule="evenodd" d="M378.698 425.553H367.598V414.445H378.698V425.553Z" fill="#B30B17"/>
<path fill-rule="evenodd" clip-rule="evenodd" d="M69.6465 408.197H72.4568V428.888H69.6465V408.197Z" fill="#1B1918"/>
<path fill-rule="evenodd" clip-rule="evenodd" d="M83.5747 428.888V419.663C83.5747 418.276 83.3975 417.308 83.0371 416.775C82.664 416.284 82.0561 416.012 81.1851 416.012C80.214 416.012 79.4963 416.374 79.0479 417.1C78.6004 417.816 78.3825 418.965 78.3825 420.546V428.888H75.9177V416.729C75.9177 416.425 75.9079 416.071 75.8829 415.706C75.8553 415.336 75.8248 414.921 75.7773 414.463H78.2996L78.4053 416.107C78.9081 415.431 79.4707 414.921 80.0764 414.6C80.6999 414.26 81.4049 414.115 82.2157 414.115C83.4095 414.115 84.3401 414.468 85.0409 415.163C85.724 415.856 86.0793 416.795 86.0793 417.991V428.888H83.5747Z" fill="#1B1918"/>
<path fill-rule="evenodd" clip-rule="evenodd" d="M89.7223 411.998V411.087C89.7223 410.386 89.8024 409.886 89.962 409.516C90.1045 409.193 90.3627 408.878 90.7103 408.635C91.0983 408.382 91.5636 408.184 92.1289 408.062C92.6821 407.942 93.3681 407.894 94.2115 407.894H94.8371V409.836C93.756 409.878 93.0375 410.031 92.68 410.334C92.3247 410.652 92.1445 411.455 92.1445 412.749V414.463H94.8371V416.222H92.1445V428.888H89.7223V416.222H87.7227V414.463H89.7223V411.998Z" fill="#1B1918"/>
<path fill-rule="evenodd" clip-rule="evenodd" d="M101.629 416.292C100.603 416.292 99.8717 416.687 99.4163 417.52C98.9687 418.369 98.7509 419.743 98.7509 421.682C98.7509 423.656 98.9659 425.038 99.4141 425.868C99.8667 426.707 100.592 427.117 101.629 427.117C102.647 427.117 103.373 426.707 103.823 425.868C104.264 425.038 104.479 423.661 104.479 421.699C104.479 419.72 104.264 418.344 103.823 417.508C103.373 416.685 102.647 416.292 101.629 416.292ZM96.2109 421.651C96.2109 419.032 96.6415 417.122 97.5025 415.946C98.3659 414.751 99.7369 414.145 101.629 414.145C103.525 414.145 104.891 414.75 105.748 415.936C106.588 417.117 107.009 419.032 107.009 421.682C107.009 424.329 106.583 426.241 105.74 427.439C104.881 428.618 103.515 429.249 101.629 429.249C99.722 429.249 98.3403 428.618 97.482 427.439C96.6393 426.241 96.2109 424.324 96.2109 421.651Z" fill="#1B1918"/>
<path fill-rule="evenodd" clip-rule="evenodd" d="M112.145 414.456L112.367 416.322C112.628 415.594 113.075 415.041 113.694 414.665C114.295 414.255 115.073 414.08 115.986 414.08C116.031 414.08 116.103 414.083 116.196 414.087C116.299 414.105 116.386 414.107 116.449 414.107V416.64C116.359 416.64 116.251 416.637 116.111 416.632C115.966 416.618 115.871 416.595 115.81 416.595C114.57 416.595 113.696 416.877 113.155 417.415C112.631 417.966 112.367 418.859 112.367 420.125V428.874H109.905V416.865C109.905 416.745 109.86 416.194 109.753 415.216C109.72 414.903 109.698 414.628 109.678 414.456H112.145Z" fill="#1B1918"/>
<path fill-rule="evenodd" clip-rule="evenodd" d="M120.689 416.107C121.192 415.431 121.742 414.921 122.353 414.6C122.971 414.26 123.686 414.115 124.49 414.115C125.403 414.115 126.179 414.348 126.809 414.753C127.47 415.176 127.923 415.759 128.191 416.51C128.611 415.722 129.149 415.141 129.82 414.728C130.49 414.343 131.281 414.115 132.187 414.115C133.383 414.115 134.309 414.463 134.992 415.158C135.657 415.846 136 416.787 136 417.991V428.888H133.538V419.663C133.538 418.276 133.358 417.308 133.01 416.775C132.642 416.284 132.036 416.012 131.158 416.012C130.2 416.012 129.484 416.377 129.024 417.105C128.578 417.825 128.349 418.972 128.349 420.546V428.888H125.841V419.663C125.841 418.276 125.668 417.308 125.303 416.775C124.95 416.284 124.337 416.012 123.464 416.012C122.491 416.012 121.77 416.374 121.329 417.1C120.882 417.816 120.651 418.965 120.651 420.546V428.888H118.196V416.729C118.196 416.425 118.181 416.071 118.157 415.706C118.139 415.336 118.099 414.921 118.057 414.463H120.569L120.689 416.107Z" fill="#1B1918"/>
<path fill-rule="evenodd" clip-rule="evenodd" d="M146.443 421.351C144.459 421.351 143.075 421.582 142.299 422.032C141.511 422.485 141.106 423.286 141.106 424.379C141.106 425.105 141.331 425.67 141.749 426.129C142.184 426.614 142.733 426.836 143.383 426.836C144.356 426.836 145.11 426.463 145.653 425.708C146.183 424.937 146.443 423.867 146.443 422.44V421.351ZM141.579 418.256H138.917V417.961C138.917 416.702 139.354 415.739 140.215 415.098C141.081 414.45 142.35 414.115 144.041 414.115C145.705 414.115 146.919 414.458 147.699 415.144C148.49 415.807 148.883 416.875 148.883 418.321V425.038C148.883 425.708 148.906 426.368 148.941 426.994C148.991 427.634 149.051 428.258 149.129 428.888H146.671L146.501 427.067C146.013 427.705 145.463 428.183 144.812 428.523C144.174 428.871 143.483 429.038 142.777 429.038C141.562 429.038 140.571 428.615 139.805 427.817C139.039 426.997 138.656 425.928 138.656 424.624C138.656 422.953 139.187 421.707 140.25 420.871C141.329 420.028 142.918 419.615 145.034 419.615H146.421V418.884C146.421 417.748 146.258 416.96 145.923 416.525C145.588 416.092 145.025 415.886 144.219 415.886C143.338 415.886 142.692 416.066 142.24 416.437C141.799 416.815 141.579 417.373 141.579 418.074V418.256Z" fill="#1B1918"/>
<path fill-rule="evenodd" clip-rule="evenodd" d="M155.316 410.371V414.463H158.201V416.222H155.316V424.877C155.316 425.656 155.433 426.178 155.676 426.476C155.914 426.774 156.344 426.927 156.997 426.927C157.215 426.927 157.593 426.904 158.118 426.869H158.201L158.188 428.751C157.806 428.836 157.451 428.896 157.095 428.933C156.772 428.979 156.457 429.001 156.162 429.001C154.95 429.001 154.095 428.768 153.592 428.273C153.101 427.795 152.861 426.961 152.861 425.746V416.222H150.674V414.463H152.861V411.57L155.316 410.371Z" fill="#1B1918"/>
<path fill-rule="evenodd" clip-rule="evenodd" d="M160.467 414.463H162.844V428.888H160.467V414.463ZM160.467 408.197H162.844V410.852H160.467V408.197Z" fill="#1B1918"/>
<path fill-rule="evenodd" clip-rule="evenodd" d="M171.312 416.292C170.292 416.292 169.548 416.687 169.098 417.52C168.648 418.369 168.43 419.743 168.43 421.682C168.43 423.656 168.645 425.038 169.093 425.868C169.541 426.707 170.279 427.117 171.312 427.117C172.324 427.117 173.059 426.707 173.497 425.868C173.938 425.038 174.16 423.661 174.16 421.699C174.16 419.72 173.938 418.344 173.497 417.508C173.059 416.685 172.324 416.292 171.312 416.292ZM165.893 421.651C165.893 419.032 166.321 417.122 167.184 415.946C168.052 414.751 169.419 414.145 171.312 414.145C173.199 414.145 174.576 414.75 175.426 415.936C176.273 417.117 176.7 419.032 176.7 421.682C176.7 424.329 176.27 426.241 175.421 427.439C174.563 428.618 173.189 429.249 171.312 429.249C169.404 429.249 168.035 428.618 167.174 427.439C166.318 426.241 165.893 424.324 165.893 421.651Z" fill="#1B1918"/>
<path fill-rule="evenodd" clip-rule="evenodd" d="M187.239 428.888V419.663C187.239 418.276 187.051 417.308 186.695 416.775C186.333 416.284 185.707 416.012 184.849 416.012C183.878 416.012 183.165 416.374 182.712 417.1C182.259 417.816 182.049 418.965 182.049 420.546V428.888H179.587V416.729C179.587 416.425 179.574 416.071 179.539 415.706C179.507 415.336 179.482 414.921 179.441 414.463H181.949L182.071 416.107C182.574 415.431 183.125 414.921 183.743 414.6C184.353 414.26 185.057 414.115 185.88 414.115C187.064 414.115 188.004 414.468 188.692 415.163C189.388 415.856 189.731 416.795 189.731 417.991V428.888H187.239Z" fill="#1B1918"/>
<path fill-rule="evenodd" clip-rule="evenodd" d="M231.826 408.197H234.636V428.888H231.826V408.197Z" fill="#1B1918"/>
<path fill-rule="evenodd" clip-rule="evenodd" d="M245.747 428.888V419.663C245.747 418.276 245.555 417.308 245.209 416.775C244.851 416.284 244.235 416.012 243.372 416.012C242.392 416.012 241.673 416.374 241.228 417.1C240.78 417.816 240.56 418.965 240.56 420.546V428.888H238.1V416.729C238.1 416.425 238.093 416.071 238.062 415.706C238.032 415.336 238 414.921 237.955 414.463H240.472L240.59 416.107C241.093 415.431 241.649 414.921 242.259 414.6C242.872 414.26 243.58 414.115 244.396 414.115C245.579 414.115 246.505 414.468 247.206 415.163C247.889 415.856 248.252 416.795 248.252 417.991V428.888H245.747Z" fill="#1B1918"/>
<path fill-rule="evenodd" clip-rule="evenodd" d="M254.626 410.371V414.463H257.511V416.222H254.626V424.877C254.626 425.656 254.746 426.178 254.984 426.476C255.219 426.774 255.66 426.927 256.302 426.927C256.525 426.927 256.898 426.904 257.424 426.869H257.511L257.501 428.751C257.103 428.836 256.748 428.896 256.413 428.933C256.082 428.979 255.762 429.001 255.477 429.001C254.248 429.001 253.4 428.768 252.907 428.273C252.409 427.795 252.164 426.961 252.164 425.746V416.222H249.975V414.463H252.164V411.57L254.626 410.371Z" fill="#1B1918"/>
<path fill-rule="evenodd" clip-rule="evenodd" d="M261.818 420.406H267.395V419.169C267.395 418.071 267.17 417.258 266.717 416.702C266.267 416.109 265.601 415.849 264.735 415.849C263.767 415.849 263.041 416.202 262.571 416.945C262.095 417.681 261.84 418.844 261.818 420.406ZM269.81 424.389C269.742 425.903 269.252 427.087 268.336 427.95C267.423 428.808 266.189 429.249 264.64 429.249C262.714 429.249 261.33 428.62 260.496 427.47C259.658 426.299 259.232 424.324 259.232 421.564C259.232 418.972 259.668 417.105 260.529 415.919C261.384 414.75 262.761 414.145 264.64 414.145C266.422 414.145 267.736 414.618 268.566 415.568C269.402 416.502 269.81 417.998 269.81 420.038V422.285H261.803V423.108C261.803 424.497 262.023 425.536 262.475 426.151C262.936 426.799 263.657 427.117 264.655 427.117C265.413 427.117 266.011 426.881 266.486 426.416C266.947 425.928 267.243 425.255 267.357 424.389H269.81Z" fill="#1B1918"/>
<path fill-rule="evenodd" clip-rule="evenodd" d="M274.915 428.888H272.463V408.197H274.915V428.888Z" fill="#1B1918"/>
<path fill-rule="evenodd" clip-rule="evenodd" d="M280.516 428.888H278.059V408.197H280.516V428.888Z" fill="#1B1918"/>
<path fill-rule="evenodd" clip-rule="evenodd" d="M283.91 414.463H286.298V428.888H283.91V414.463ZM283.91 408.197H286.298V410.852H283.91V408.197Z" fill="#1B1918"/>
<path fill-rule="evenodd" clip-rule="evenodd" d="M291.84 421.615C291.84 423.564 292.06 424.963 292.5 425.816C292.934 426.696 293.704 427.117 294.615 427.117C295.658 427.117 296.429 426.691 296.917 425.78C297.405 424.915 297.638 423.521 297.638 421.615C297.638 419.575 297.415 418.113 296.957 417.23C296.497 416.374 295.741 415.927 294.698 415.927C293.714 415.927 292.918 416.344 292.49 417.158C292.058 417.989 291.84 419.475 291.84 421.615ZM290.184 430.517H292.996C293.013 431.151 293.211 431.671 293.671 432.061C293.861 432.444 294.445 432.657 295.063 432.657C295.969 432.657 296.602 432.402 296.977 431.951C297.343 431.478 297.525 430.6 297.525 429.311V427.222C297.012 427.92 296.477 428.433 295.923 428.751C295.35 429.056 294.73 429.249 294.094 429.249C292.428 429.249 291.222 428.588 290.451 427.359C289.683 426.103 289.295 424.137 289.295 421.474C289.295 418.924 289.683 417.078 290.451 415.869C291.222 414.683 292.423 414.08 294.079 414.08C294.77 414.08 295.433 414.22 296.009 414.505C296.564 414.805 297.077 415.234 297.525 415.847L297.666 414.463H300.162C300.113 414.788 300.09 415.163 300.052 415.559C300.035 415.992 300.027 416.445 300.027 417.01V429.657C300.027 430.558 299.967 431.223 299.837 431.721C299.697 432.196 299.494 432.634 299.202 432.99C298.784 433.515 298.238 433.905 297.575 434.138C296.924 434.399 296.066 434.496 295.038 434.496C293.652 434.496 292.373 434.148 291.532 433.473C290.692 432.754 290.238 431.778 290.184 430.517Z" fill="#1B1918"/>
<path fill-rule="evenodd" clip-rule="evenodd" d="M305.513 420.406H311.088V419.169C311.088 418.071 310.86 417.258 310.415 416.702C309.961 416.109 309.306 415.849 308.417 415.849C307.452 415.849 306.746 416.202 306.258 416.945C305.773 417.681 305.527 418.844 305.513 420.406ZM313.51 424.389C313.427 425.903 312.937 427.087 312.026 427.95C311.117 428.808 309.889 429.249 308.322 429.249C306.405 429.249 305.027 428.62 304.186 427.47C303.353 426.299 302.928 424.324 302.928 421.564C302.928 418.972 303.355 417.105 304.224 415.919C305.074 414.75 306.453 414.145 308.322 414.145C310.114 414.145 311.435 414.618 312.249 415.568C313.099 416.502 313.51 417.998 313.51 420.038V422.285H305.498V423.108C305.498 424.497 305.727 425.536 306.173 426.151C306.631 426.799 307.342 427.117 308.348 427.117C309.106 427.117 309.711 426.881 310.169 426.416C310.634 425.928 310.942 425.255 311.055 424.389H313.51Z" fill="#1B1918"/>
<path fill-rule="evenodd" clip-rule="evenodd" d="M323.863 428.888V419.663C323.863 418.276 323.676 417.308 323.321 416.775C322.965 416.284 322.359 416.012 321.496 416.012C320.51 416.012 319.785 416.374 319.354 417.1C318.894 417.816 318.671 418.965 318.671 420.546V428.888H316.227V416.729C316.227 416.425 316.214 416.071 316.186 415.706C316.157 415.336 316.119 414.921 316.066 414.463H318.599L318.699 416.107C319.204 415.431 319.762 414.921 320.388 414.6C320.988 414.26 321.712 414.115 322.505 414.115C323.694 414.115 324.659 414.468 325.34 415.163C326.018 415.856 326.363 416.795 326.363 417.991V428.888H323.863Z" fill="#1B1918"/>
<path fill-rule="evenodd" clip-rule="evenodd" d="M337.238 423.998H339.768C339.73 425.66 339.25 426.939 338.33 427.842C337.421 428.781 336.165 429.249 334.586 429.249C332.684 429.249 331.293 428.62 330.445 427.47C329.623 426.299 329.166 424.376 329.166 421.699C329.166 419.06 329.623 417.122 330.445 415.946C331.29 414.751 332.679 414.145 334.581 414.145C336.075 414.145 337.326 414.553 338.242 415.381C339.19 416.184 339.65 417.285 339.65 418.621V418.919H337.238C337.238 418.071 337.028 417.44 336.578 416.96C336.135 416.497 335.521 416.292 334.713 416.292C333.615 416.292 332.837 416.677 332.378 417.476C331.936 418.289 331.698 419.687 331.698 421.699C331.698 423.674 331.934 425.079 332.359 425.883C332.809 426.709 333.53 427.117 334.583 427.117C335.367 427.117 335.987 426.826 336.475 426.258C336.953 425.708 337.223 424.937 337.238 423.998Z" fill="#1B1918"/>
<path fill-rule="evenodd" clip-rule="evenodd" d="M344.701 420.406H350.274V419.169C350.274 418.071 350.056 417.258 349.608 416.702C349.145 416.109 348.499 415.849 347.639 415.849C346.645 415.849 345.914 416.202 345.457 416.945C344.974 417.681 344.726 418.844 344.701 420.406ZM352.713 424.389C352.611 425.903 352.14 427.087 351.232 427.95C350.306 428.808 349.085 429.249 347.529 429.249C345.597 429.249 344.218 428.62 343.369 427.47C342.552 426.299 342.131 424.324 342.131 421.564C342.131 418.972 342.564 417.105 343.407 415.919C344.276 414.75 345.639 414.145 347.529 414.145C349.315 414.145 350.618 414.618 351.445 415.568C352.285 416.502 352.713 417.998 352.713 420.038V422.285H344.681V423.108C344.681 424.497 344.911 425.536 345.369 426.151C345.817 426.799 346.545 427.117 347.534 427.117C348.294 427.117 348.913 426.881 349.375 426.416C349.85 425.928 350.121 425.255 350.241 424.389H352.713Z" fill="#1B1918"/>
<path fill-rule="evenodd" clip-rule="evenodd" d="M394.357 408.197H397.173V428.888H394.357V408.197Z" fill="#1B1918"/>
<path fill-rule="evenodd" clip-rule="evenodd" d="M408.303 428.888V419.663C408.303 418.276 408.106 417.308 407.747 416.775C407.395 416.284 406.792 416.012 405.901 416.012C404.945 416.012 404.216 416.374 403.769 417.1C403.318 417.816 403.101 418.965 403.101 420.546V428.888H400.649V416.729C400.649 416.425 400.631 416.071 400.608 415.706C400.588 415.336 400.544 414.921 400.48 414.463H403.014L403.123 416.107C403.626 415.431 404.192 414.921 404.792 414.6C405.42 414.26 406.126 414.115 406.93 414.115C408.118 414.115 409.076 414.468 409.754 415.163C410.438 415.856 410.775 416.795 410.775 417.991V428.888H408.303Z" fill="#1B1918"/>
<path fill-rule="evenodd" clip-rule="evenodd" d="M421.59 428.888V419.663C421.59 418.276 421.385 417.308 421.035 416.775C420.682 416.284 420.069 416.012 419.201 416.012C418.225 416.012 417.506 416.374 417.066 417.1C416.613 417.816 416.371 418.965 416.371 420.546V428.888H413.924V416.729C413.924 416.425 413.919 416.071 413.886 415.706C413.868 415.336 413.841 414.921 413.801 414.463H416.3L416.395 416.107C416.911 415.431 417.479 414.921 418.095 414.6C418.7 414.26 419.406 414.115 420.229 414.115C421.402 414.115 422.349 414.468 423.024 415.163C423.745 415.856 424.08 416.795 424.08 417.991V428.888H421.59Z" fill="#1B1918"/>
<path fill-rule="evenodd" clip-rule="evenodd" d="M432.256 416.292C431.248 416.292 430.509 416.687 430.059 417.52C429.598 418.369 429.391 419.743 429.391 421.682C429.391 423.656 429.598 425.038 430.049 425.868C430.499 426.707 431.23 427.117 432.256 427.117C433.279 427.117 434.017 426.707 434.465 425.868C434.898 425.038 435.108 423.661 435.108 421.699C435.108 419.72 434.898 418.344 434.465 417.508C434.017 416.685 433.279 416.292 432.256 416.292ZM426.846 421.651C426.846 419.032 427.286 417.122 428.144 415.946C429.018 414.751 430.384 414.145 432.256 414.145C434.165 414.145 435.529 414.75 436.382 415.936C437.223 417.117 437.646 419.032 437.646 421.682C437.646 424.329 437.22 426.241 436.379 427.439C435.513 428.618 434.155 429.249 432.256 429.249C430.372 429.249 428.993 428.618 428.124 427.439C427.278 426.241 426.846 424.324 426.846 421.651Z" fill="#1B1918"/>
<path fill-rule="evenodd" clip-rule="evenodd" d="M443.693 428.889L439.219 414.463H442.067L444.324 422.758C444.516 423.456 444.684 424.159 444.836 424.892C444.992 425.613 445.124 426.371 445.229 427.149C445.529 425.813 445.872 424.502 446.255 423.194C446.332 422.981 446.363 422.845 446.375 422.783L448.68 414.463H451.285L446.776 428.889H443.693Z" fill="#1B1918"/>
<path fill-rule="evenodd" clip-rule="evenodd" d="M460.443 421.351C458.439 421.351 457.055 421.582 456.259 422.032C455.476 422.485 455.096 423.286 455.096 424.379C455.096 425.105 455.304 425.67 455.741 426.129C456.164 426.614 456.71 426.836 457.363 426.836C458.336 426.836 459.084 426.463 459.633 425.708C460.163 424.937 460.443 423.867 460.443 422.44V421.351ZM455.563 418.256H452.898V417.961C452.898 416.702 453.317 415.739 454.185 415.098C455.076 414.45 456.349 414.115 458.036 414.115C459.695 414.115 460.906 414.458 461.702 415.144C462.48 415.807 462.85 416.875 462.85 418.321V425.038C462.85 425.708 462.883 426.368 462.945 426.994C462.988 427.634 463.048 428.258 463.105 428.888H460.658L460.491 427.067C460.008 427.705 459.442 428.183 458.804 428.523C458.141 428.871 457.473 429.038 456.775 429.038C455.556 429.038 454.548 428.615 453.784 427.817C453.004 426.997 452.621 425.928 452.621 424.624C452.621 422.953 453.191 421.707 454.225 420.871C455.293 420.028 456.895 419.615 459.012 419.615H460.396V418.884C460.396 417.748 460.243 416.96 459.898 416.525C459.57 416.092 459.007 415.886 458.174 415.886C457.333 415.886 456.682 416.066 456.217 416.437C455.771 416.815 455.563 417.373 455.563 418.074V418.256Z" fill="#1B1918"/>
<path fill-rule="evenodd" clip-rule="evenodd" d="M469.283 410.371V414.463H472.179V416.222H469.283V424.877C469.283 425.656 469.419 426.178 469.654 426.476C469.909 426.774 470.325 426.927 470.962 426.927C471.211 426.927 471.581 426.904 472.091 426.869H472.179L472.171 428.751C471.766 428.836 471.418 428.896 471.085 428.933C470.755 428.979 470.429 429.001 470.154 429.001C468.936 429.001 468.082 428.768 467.587 428.273C467.084 427.795 466.834 426.961 466.834 425.746V416.222H464.654V414.463H466.834V411.57L469.283 410.371Z" fill="#1B1918"/>
<path fill-rule="evenodd" clip-rule="evenodd" d="M474.459 414.463H476.821V428.888H474.459V414.463ZM474.459 408.197H476.821V410.852H474.459V408.197Z" fill="#1B1918"/>
<path fill-rule="evenodd" clip-rule="evenodd" d="M485.28 416.292C484.259 416.292 483.534 416.687 483.075 417.52C482.643 418.369 482.392 419.743 482.392 421.682C482.392 423.656 482.641 425.038 483.073 425.868C483.524 426.707 484.254 427.117 485.28 427.117C486.313 427.117 487.044 426.707 487.49 425.868C487.91 425.038 488.123 423.661 488.123 421.699C488.123 419.72 487.91 418.344 487.49 417.508C487.044 416.685 486.313 416.292 485.28 416.292ZM479.865 421.651C479.865 419.032 480.309 417.122 481.167 415.946C482.04 414.751 483.398 414.145 485.28 414.145C487.177 414.145 488.541 414.75 489.419 415.936C490.272 417.117 490.683 419.032 490.683 421.682C490.683 424.329 490.272 426.241 489.412 427.439C488.526 428.618 487.17 429.249 485.28 429.249C483.376 429.249 482.002 428.618 481.157 427.439C480.309 426.241 479.865 424.324 479.865 421.651Z" fill="#1B1918"/>
<path fill-rule="evenodd" clip-rule="evenodd" d="M501.219 428.888V419.663C501.219 418.276 501.034 417.308 500.679 416.775C500.325 416.284 499.703 416.012 498.842 416.012C497.859 416.012 497.143 416.374 496.687 417.1C496.252 417.816 496.007 418.965 496.007 420.546V428.888H493.567V416.729C493.567 416.425 493.559 416.071 493.52 415.706C493.495 415.336 493.457 414.921 493.422 414.463H495.939L496.039 416.107C496.573 415.431 497.115 414.921 497.729 414.6C498.339 414.26 499.052 414.115 499.855 414.115C501.054 414.115 501.977 414.468 502.698 415.163C503.359 415.856 503.709 416.795 503.709 417.991V428.888H501.219Z" fill="#1B1918"/>
<path fill-rule="evenodd" clip-rule="evenodd" d="M333.281 71.2095C333.281 71.2095 295.376 127.72 297.119 177.19C295.694 178.358 294.203 179.605 292.642 180.937C292.292 181.235 291.932 181.516 291.564 181.792C284.872 129.09 325.422 66.4573 325.422 66.4573L333.281 71.2095ZM303.678 205.789C310.555 220.256 323.385 232.584 344.959 240.504L336.993 240.171C318.541 232.099 306.729 220.774 299.666 207.741C301.115 207.059 302.45 206.406 303.678 205.789Z" fill="#B30B17"/>
<path fill-rule="evenodd" clip-rule="evenodd" d="M298.693 215.851C296.916 214.108 295.28 212.287 293.748 210.411C295.295 209.821 296.753 209.098 298.099 208.469C299.06 209.928 300.071 211.36 301.155 212.756L298.693 215.851ZM281.048 186.667C264.411 134.975 297.101 64.7661 297.101 64.7661L305.537 68.3645C305.537 68.3645 275.353 133.202 287.756 184.136C285.66 185.191 283.398 186.01 281.048 186.667Z" fill="#004B93"/>
<path fill-rule="evenodd" clip-rule="evenodd" d="M303.517 34.1702L307.674 42.5903L316.949 43.9416L310.236 50.4906L311.82 59.7415L303.517 55.372L295.202 59.7415L296.786 50.4906L290.072 43.9416L299.366 42.5903L303.517 34.1702Z" fill="#B30B17"/>
<path fill-rule="evenodd" clip-rule="evenodd" d="M340.497 40.1106L344.648 48.5287L353.949 49.8701L347.227 56.4311L348.806 65.677L340.497 61.3154L332.169 65.677L333.785 56.4311L327.047 49.8701L336.337 48.5287L340.497 40.1106Z" fill="#004B93"/>
<path fill-rule="evenodd" clip-rule="evenodd" d="M329.271 4.45068L333.42 12.8687L342.713 14.22L335.982 20.7704L337.579 30.0242L329.271 25.6525L320.954 30.0242L322.553 20.7704L315.816 14.22L325.125 12.8687L329.271 4.45068Z" fill="#004B93"/>
<path fill-rule="evenodd" clip-rule="evenodd" d="M370.666 124.821C360.842 104.021 331.22 96.2871 298.002 103.371C326.811 97.9611 352.144 105.063 360.724 123.225C372.13 147.464 349.362 182.243 309.79 200.895C270.242 219.515 228.901 215.003 217.479 190.756C208.053 170.785 221.875 143.69 249.135 124.323C217.216 145.94 200.751 177.081 211.488 199.854C224.19 226.803 270.122 231.843 314.062 211.122C358.007 190.4 383.345 151.76 370.666 124.821Z" fill="#004B93"/>
<path fill-rule="evenodd" clip-rule="evenodd" d="M308.418 98.8994L305.996 104.319L315.337 103.846L317.949 98.064L308.418 98.8994Z" fill="#B30B17"/>
<path fill-rule="evenodd" clip-rule="evenodd" d="M518.407 255.751C517.644 254.341 516.708 253.295 515.613 252.611C514.511 251.94 513.199 251.602 511.679 251.602C509.678 251.602 507.979 252.359 506.588 253.879C505.191 255.4 504.495 257.277 504.495 259.512C504.495 261.747 505.191 263.618 506.601 265.12C507.998 266.622 509.728 267.373 511.79 267.373C513.298 267.373 514.621 267.004 515.779 266.259C516.93 265.52 517.804 264.48 518.407 263.138H521.165C520.414 265.243 519.232 266.874 517.613 268.032C516.006 269.183 514.098 269.761 511.907 269.761C509.094 269.761 506.717 268.764 504.785 266.763C502.845 264.769 501.879 262.362 501.879 259.549C501.879 256.68 502.858 254.243 504.821 252.248C506.779 250.247 509.167 249.25 511.981 249.25C514.086 249.25 515.945 249.817 517.552 250.955C519.164 252.088 520.365 253.689 521.165 255.751H518.407Z" fill="#004B93" stroke="#102A83" stroke-width="0.288"/>
<path d="M511.813 243.349C520.575 243.349 527.68 250.455 527.68 259.217C527.68 267.979 520.575 275.084 511.813 275.084C503.051 275.084 495.945 267.979 495.945 259.217C495.945 250.455 503.051 243.349 511.813 243.349Z" stroke="#004B93" stroke-width="0.666667"/>
</svg>
