<svg width="772" height="260" viewBox="0 0 772 260" fill="none" xmlns="http://www.w3.org/2000/svg">
<path fill-rule="evenodd" clip-rule="evenodd" d="M329.865 31.7571H334.264V53.3942H329.865V31.7571Z" fill="#B30B17"/>
<path fill-rule="evenodd" clip-rule="evenodd" d="M348.635 53.3942V31.7571H354.697L358.85 42.975C359.333 44.2839 359.761 45.5735 360.127 46.7915C360.511 48.0497 360.82 49.2653 361.076 50.4639C360.968 49.5519 360.877 48.5609 360.826 47.541C360.775 46.533 360.732 45.3884 360.732 44.2155L360.448 31.7571H364.657V53.3942H358.768L354.368 41.538C354.044 40.6573 353.698 39.5843 353.323 38.3429C352.948 37.1048 352.554 35.7387 352.176 34.2479C352.284 35.614 352.366 36.8061 352.437 37.843C352.485 38.8823 352.517 39.763 352.525 40.4987L352.778 53.3942H348.635Z" fill="#B30B17"/>
<path fill-rule="evenodd" clip-rule="evenodd" d="M382.381 53.3942V35.2903H377.457V31.7571H391.952V35.2903H387.013V53.3942H382.381Z" fill="#B30B17"/>
<path fill-rule="evenodd" clip-rule="evenodd" d="M404.617 53.3942V31.7571H416.264V35.0682H409.149V40.2685H415.698V43.5884H409.149V49.8788H416.525V53.3942H404.617Z" fill="#B30B17"/>
<path fill-rule="evenodd" clip-rule="evenodd" d="M434.605 41.1033H435.704C436.914 41.1033 437.746 40.8731 438.22 40.3988C438.692 39.9449 438.93 39.1407 438.93 38.0081C438.93 36.8915 438.714 36.1308 438.279 35.7331C437.865 35.3153 437.028 35.1084 435.806 35.1084H434.605V41.1033ZM436.474 31.7571C439.123 31.7571 440.921 32.1572 441.867 32.967C442.812 33.7624 443.283 35.2243 443.283 37.3061C443.283 38.9732 443.045 40.2201 442.562 41.0462C442.082 41.8471 441.27 42.4042 440.125 42.6818C441.418 42.9524 442.304 43.4032 442.772 44.048C443.246 44.6985 443.48 45.951 443.48 47.8026C443.48 47.9564 443.471 48.1036 443.457 48.3677C443.451 48.5891 443.44 48.7767 443.44 48.8877C443.44 49.8924 443.482 50.7192 443.576 51.446C443.664 52.1674 443.815 52.7921 443.991 53.3942H439.285C439.084 52.6672 438.978 51.219 438.956 49.0922C438.947 48.3565 438.935 47.7825 438.93 47.3824C438.907 46.3084 438.706 45.5623 438.325 45.1331C437.959 44.6726 437.351 44.4714 436.474 44.4714H434.605V53.3942H430.072V31.7571H436.474Z" fill="#B30B17"/>
<path fill-rule="evenodd" clip-rule="evenodd" d="M457.408 53.3942V31.7571H463.466L467.607 42.975C468.101 44.2839 468.529 45.5735 468.882 46.7915C469.256 48.0497 469.586 49.2653 469.839 50.4639C469.737 49.5519 469.643 48.5609 469.594 47.541C469.541 46.533 469.503 45.3884 469.503 44.2155L469.228 31.7571H473.417V53.3942H467.536L463.142 41.538C462.815 40.6573 462.452 39.5843 462.094 38.3429C461.722 37.1048 461.33 35.7387 460.945 34.2479C461.049 35.614 461.126 36.8061 461.194 37.843C461.251 38.8823 461.291 39.763 461.3 40.4987L461.558 53.3942H457.408Z" fill="#B30B17"/>
<path fill-rule="evenodd" clip-rule="evenodd" d="M492.621 45.2434H497.245L495.002 35.8779L492.621 45.2434ZM499.225 53.3942L498.06 48.544H491.792L490.668 53.3942H486.139L492.199 31.7571H497.958L503.99 53.3942H499.225Z" fill="#B30B17"/>
<path fill-rule="evenodd" clip-rule="evenodd" d="M518.35 53.3942V35.2903H513.42V31.7571H527.943V35.2903H522.982V53.3942H518.35Z" fill="#B30B17"/>
<path fill-rule="evenodd" clip-rule="evenodd" d="M540.643 31.7571H545.031V53.3942H540.643V31.7571Z" fill="#B30B17"/>
<path fill-rule="evenodd" clip-rule="evenodd" d="M563.586 42.5089C563.586 45.6983 563.808 47.8026 564.214 48.8193C564.592 49.8505 565.319 50.3441 566.321 50.3441C567.392 50.3441 568.127 49.8674 568.548 48.8788C568.929 47.8824 569.141 45.6983 569.141 42.3076C569.141 39.2887 568.929 37.2947 568.557 36.3151C568.133 35.3354 567.426 34.8556 566.375 34.8556C565.333 34.8556 564.598 35.3442 564.22 36.3488C563.811 37.3407 563.586 39.4048 563.586 42.5089ZM566.384 53.6953C565.407 53.6953 564.475 53.5704 563.609 53.3008C562.754 53.0649 562.056 52.6897 561.542 52.2438C560.655 51.463 560.014 50.3327 559.628 48.8764C559.244 47.4137 559.043 45.2354 559.043 42.3302C559.043 40.0721 559.179 38.3228 559.406 37.059C559.636 35.8039 560.019 34.7847 560.571 33.9894C561.073 33.1972 561.857 32.575 562.848 32.1491C563.848 31.7177 565.023 31.4963 566.358 31.4963C567.392 31.4963 568.352 31.6234 569.218 31.8964C570.059 32.1637 570.766 32.5492 571.314 33.0233C572.166 33.7704 572.773 34.8186 573.128 36.1477C573.483 37.4855 573.685 39.4506 573.685 42.0629C573.685 44.7781 573.566 46.7601 573.338 48.0352C573.095 49.2822 572.685 50.3383 572.157 51.1764C571.643 51.9773 570.854 52.6133 569.837 53.0505C568.86 53.4964 567.702 53.6953 566.384 53.6953Z" fill="#B30B17"/>
<path fill-rule="evenodd" clip-rule="evenodd" d="M587.66 53.3942V31.7571H593.729L597.881 42.975C598.358 44.2839 598.798 45.5735 599.159 46.7915C599.531 48.0497 599.852 49.2653 600.113 50.4639C600.003 49.5519 599.914 48.5609 599.858 47.541C599.787 46.533 599.767 45.3884 599.767 44.2155L599.497 31.7571H603.68V53.3942H597.799L593.406 41.538C593.073 40.6573 592.713 39.5843 592.366 38.3429C591.991 37.1048 591.599 35.7387 591.207 34.2479C591.304 35.614 591.406 36.8061 591.477 37.843C591.52 38.8823 591.556 39.763 591.565 40.4987L591.804 53.3942H587.66Z" fill="#B30B17"/>
<path fill-rule="evenodd" clip-rule="evenodd" d="M622.878 45.2434H627.51L625.255 35.8779L622.878 45.2434ZM629.486 53.3942L628.319 48.544H622.069L620.936 53.3942H616.395L622.46 31.7571H628.243L634.246 53.3942H629.486Z" fill="#B30B17"/>
<path fill-rule="evenodd" clip-rule="evenodd" d="M646.996 53.3942V31.7571H651.511V49.5631H658.137V53.3942H646.996Z" fill="#B30B17"/>
<path fill-rule="evenodd" clip-rule="evenodd" d="M267.181 125.752H276.368C281.267 125.752 284.864 125.034 287.145 123.611C289.44 122.21 290.582 120.009 290.582 117.008C290.582 114.04 289.454 111.831 287.219 110.394C284.97 109.003 281.544 108.281 276.927 108.281H267.181V125.752ZM267.181 98.8466H278.055C281.962 98.8466 284.845 98.1849 286.728 96.8389C288.596 95.5098 289.53 93.4256 289.53 90.6249C289.53 88.2824 288.537 86.4623 286.574 85.1951C284.589 83.9458 281.752 83.3098 278.055 83.3098H267.181V98.8466ZM248.682 135.326V73.8896H281.23C290.346 73.8896 297.122 75.1278 301.566 77.5847C305.993 80.0753 308.215 83.8267 308.215 88.8564C308.215 92.9741 306.845 96.376 304.088 98.9858C301.345 101.599 297.61 103.053 292.898 103.362C298.181 103.967 302.276 105.546 305.218 108.139C308.152 110.692 309.611 114.001 309.611 118.019C309.611 124.037 307.38 128.439 302.938 131.202C298.491 133.968 291.436 135.326 281.786 135.326H248.682Z" fill="#004B93"/>
<path fill-rule="evenodd" clip-rule="evenodd" d="M379.079 73.8896V112.436C379.079 121.046 376.645 127.172 371.772 130.867C366.896 134.547 358.887 136.399 347.74 136.399C337.003 136.399 329.105 134.587 324.013 130.975C318.936 127.382 316.396 121.799 316.396 114.239V73.8896H335.603V110.899C335.603 117.931 336.492 122.401 338.267 124.295C340.061 126.195 343.294 127.135 347.982 127.135C352.497 127.135 355.638 126.076 357.405 123.963C359.151 121.833 360.049 117.483 360.049 110.899V73.8896H379.079Z" fill="#004B93"/>
<path fill-rule="evenodd" clip-rule="evenodd" d="M385.249 116.31H404.849V117.931C404.849 121.115 405.645 123.389 407.255 124.733C408.86 126.11 411.537 126.783 415.289 126.783C418.254 126.783 420.603 126.184 422.329 124.977C424.05 123.77 424.928 122.117 424.928 120.026C424.928 117.122 420.85 113.89 412.708 110.314L411.512 109.806C407.235 107.975 403.791 106.452 401.226 105.288C398.667 104.075 396.75 103.109 395.512 102.337C392.127 100.301 389.818 98.37 388.571 96.5693C387.307 94.7717 386.691 92.5426 386.691 89.9094C386.691 84.7413 389.318 80.6486 394.601 77.5848C399.865 74.5435 406.948 73.0178 415.866 73.0178C425.067 73.0178 431.996 74.4436 436.645 77.2724C441.288 80.1059 443.611 84.3099 443.611 89.9094V91.5227H424.578V91.1934C424.578 88.2937 423.792 86.1186 422.227 84.6503C420.671 83.1932 418.331 82.4518 415.21 82.4518C412.37 82.4518 410.109 83.0056 408.42 84.1479C406.736 85.2862 405.895 86.8424 405.895 88.751C405.895 92.0394 411.219 95.7909 421.866 100.02C424.618 101.153 426.731 102.019 428.237 102.633C434.257 105.197 438.437 107.645 440.78 109.979C443.132 112.305 444.299 115.128 444.299 118.371C444.299 124.335 441.678 128.833 436.435 131.855C431.198 134.871 423.431 136.399 413.154 136.399C403.495 136.399 396.404 134.945 391.894 132.065C387.376 129.179 385.115 124.65 385.115 118.482C385.115 118.277 385.132 117.905 385.184 117.429C385.231 116.963 385.249 116.625 385.249 116.31Z" fill="#004B93"/>
<path fill-rule="evenodd" clip-rule="evenodd" d="M450.639 73.8896H469.487V135.326H450.639V73.8896Z" fill="#004B93"/>
<path fill-rule="evenodd" clip-rule="evenodd" d="M478.293 135.326V73.8896H504.142L521.777 105.802C523.887 109.557 525.711 113.152 527.298 116.706C528.889 120.228 530.246 123.719 531.365 127.135C530.899 124.494 530.53 121.705 530.274 118.788C530.038 115.835 529.914 112.686 529.914 109.292L528.77 73.8896H546.555V135.326H521.411L502.705 101.721C501.315 99.1878 499.817 96.1458 498.223 92.656C496.622 89.1285 494.995 85.221 493.313 80.9584C493.779 84.8636 494.142 88.2824 494.392 91.2134C494.659 94.1606 494.792 96.657 494.838 98.7048L495.934 135.326H478.293Z" fill="#004B93"/>
<path fill-rule="evenodd" clip-rule="evenodd" d="M555.25 135.326V73.8896H604.951V83.3098H574.64V97.9723H602.503V107.397H574.64V125.391H606.044V135.326H555.25Z" fill="#004B93"/>
<path fill-rule="evenodd" clip-rule="evenodd" d="M608.878 116.31H628.481V117.931C628.481 121.115 629.271 123.389 630.862 124.733C632.48 126.11 635.147 126.783 638.926 126.783C641.883 126.783 644.22 126.184 645.958 124.977C647.665 123.77 648.571 122.117 648.571 120.026C648.571 117.122 644.473 113.89 636.342 110.314L635.124 109.806C630.836 107.975 627.414 106.452 624.841 105.288C622.304 104.075 620.382 103.109 619.141 102.337C615.744 100.301 613.435 98.37 612.189 96.5693C610.95 94.7717 610.32 92.5426 610.32 89.9094C610.32 84.7413 612.941 80.6486 618.215 77.5848C623.483 74.5435 630.591 73.0178 639.492 73.0178C648.693 73.0178 655.62 74.4436 660.271 77.2724C664.909 80.1059 667.238 84.3099 667.238 89.9094V91.5227H648.202V91.1934C648.202 88.2937 647.438 86.1186 645.885 84.6503C644.325 83.1932 641.963 82.4518 638.836 82.4518C635.993 82.4518 633.727 83.0056 632.054 84.1479C630.353 85.2862 629.524 86.8424 629.524 88.751C629.524 92.0394 634.868 95.7909 645.49 100.02C648.236 101.153 650.363 102.019 651.851 102.633C657.888 105.197 662.049 107.645 664.412 109.979C666.743 112.305 667.936 115.128 667.936 118.371C667.936 124.335 665.303 128.833 660.07 131.855C654.799 134.871 647.054 136.399 636.799 136.399C627.11 136.399 620.021 134.945 615.514 132.065C610.999 129.179 608.738 124.65 608.738 118.482C608.738 118.277 608.753 117.905 608.803 117.429C608.852 116.963 608.878 116.625 608.878 116.31Z" fill="#004B93"/>
<path fill-rule="evenodd" clip-rule="evenodd" d="M671.611 116.31H691.195V117.931C691.195 121.115 691.996 123.389 693.595 124.733C695.225 126.11 697.889 126.783 701.646 126.783C704.602 126.783 706.96 126.184 708.692 124.977C710.415 123.77 711.282 122.117 711.282 120.026C711.282 117.122 707.195 113.89 699.036 110.314L697.869 109.806C693.567 107.975 690.159 106.452 687.568 105.288C685.007 104.075 683.093 103.109 681.863 102.337C678.486 100.301 676.164 98.37 674.906 96.5693C673.659 94.7717 673.037 92.5426 673.037 89.9094C673.037 84.7413 675.684 80.6486 680.954 77.5848C686.208 74.5435 693.294 73.0178 702.231 73.0178C711.412 73.0178 718.333 74.4436 722.971 77.2724C727.62 80.1059 729.948 84.3099 729.948 89.9094V91.5227H710.924V91.1934C710.924 88.2937 710.143 86.1186 708.581 84.6503C707.016 83.1932 704.685 82.4518 701.55 82.4518C698.707 82.4518 696.444 83.0056 694.793 84.1479C693.092 85.2862 692.249 86.8424 692.249 88.751C692.249 92.0394 697.571 95.7909 708.229 100.02C710.961 101.153 713.099 102.019 714.588 102.633C720.594 105.197 724.797 107.645 727.148 109.979C729.477 112.305 730.658 115.128 730.658 118.371C730.658 124.335 728.037 128.833 722.778 131.855C717.535 134.871 709.765 136.399 699.491 136.399C689.852 136.399 682.769 134.945 678.24 132.065C673.735 129.179 671.461 124.65 671.461 118.482C671.461 118.277 671.495 117.905 671.537 117.429C671.595 116.963 671.611 116.625 671.611 116.31Z" fill="#004B93"/>
<path fill-rule="evenodd" clip-rule="evenodd" d="M266.573 187.586C266.627 187.924 266.67 188.29 266.687 188.664C266.704 189.062 266.72 189.65 266.72 190.419C266.72 196.545 264.804 201.265 260.967 204.602C257.139 207.914 251.672 209.572 244.564 209.572C241.284 209.572 238.211 209.195 235.38 208.461C232.525 207.732 230.245 206.663 228.538 205.401C225.616 203.185 223.537 200.098 222.307 196.088C221.095 192.047 220.473 185.518 220.473 176.55C220.473 170.327 220.859 165.548 221.621 162.142C222.364 158.732 223.636 155.898 225.406 153.649C227.175 151.337 229.7 149.567 232.954 148.364C236.215 147.162 240.062 146.543 244.476 146.543C251.675 146.543 257.108 148.139 260.76 151.275C264.404 154.407 266.238 159.099 266.238 165.298V166.482H251.36V165.298C251.36 162.092 250.777 159.709 249.587 158.138C248.409 156.591 246.594 155.807 244.163 155.807C240.798 155.807 238.481 157.184 237.217 159.93C235.947 162.671 235.323 169.052 235.323 179.032C235.323 187.435 235.976 193.03 237.28 195.804C238.605 198.581 240.949 199.97 244.362 199.97C246.799 199.97 248.617 199.129 249.823 197.443C251.041 195.744 251.661 193.163 251.661 189.718C251.661 189.493 251.632 189.159 251.601 188.673C251.576 188.222 251.565 187.855 251.565 187.586H266.573Z" fill="#004B93"/>
<path fill-rule="evenodd" clip-rule="evenodd" d="M284.75 177.853C284.75 186.855 285.404 192.808 286.718 195.67C288.036 198.547 290.378 199.97 293.784 199.97C297.314 199.97 299.745 198.581 301.076 195.81C302.414 193.035 303.067 186.83 303.067 177.217C303.067 168.698 302.423 163.083 301.102 160.302C299.784 157.545 297.41 156.159 293.983 156.159C290.484 156.159 288.075 157.571 286.735 160.404C285.409 163.199 284.75 169.027 284.75 177.853ZM293.92 209.572C290.635 209.572 287.581 209.195 284.747 208.461C281.902 207.732 279.63 206.663 277.915 205.401C274.998 203.185 272.899 200.01 271.632 195.852C270.363 191.698 269.732 185.489 269.732 177.291C269.732 170.901 270.102 165.931 270.886 162.373C271.658 158.76 272.927 155.85 274.694 153.649C276.424 151.357 278.934 149.599 282.229 148.375C285.52 147.173 289.388 146.543 293.809 146.543C297.232 146.543 300.344 146.929 303.178 147.71C305.992 148.455 308.305 149.528 310.113 150.888C312.899 152.998 314.902 155.978 316.111 159.766C317.309 163.543 317.912 169.143 317.912 176.55C317.912 184.249 317.528 189.886 316.755 193.475C315.98 197.065 314.683 200.042 312.848 202.39C311.121 204.667 308.602 206.44 305.291 207.7C301.98 208.953 298.194 209.572 293.92 209.572Z" fill="#004B93"/>
<path fill-rule="evenodd" clip-rule="evenodd" d="M323.617 208.703V147.259H343.516L357.072 179.171C358.659 182.905 360.085 186.526 361.323 190.076C362.552 193.601 363.592 197.096 364.461 200.499C364.129 197.889 363.85 195.086 363.669 192.144C363.473 189.229 363.382 186.052 363.382 182.667L362.547 147.259H376.335V208.703H356.773L342.406 175.078C341.361 172.548 340.22 169.549 339.018 166.016C337.814 162.48 336.576 158.596 335.301 154.339C335.656 158.241 335.915 161.64 336.108 164.599C336.283 167.538 336.397 170.038 336.426 172.083L337.22 208.703H323.617Z" fill="#004B93"/>
<path fill-rule="evenodd" clip-rule="evenodd" d="M383.123 208.703V147.259H419.783V156.676H398.135V171.361H418.775V180.764H398.135V208.703H383.123Z" fill="#004B93"/>
<path fill-rule="evenodd" clip-rule="evenodd" d="M424.631 208.703V147.259H463.052V156.676H439.645V171.361H461.166V180.764H439.645V198.769H463.915V208.703H424.631Z" fill="#004B93"/>
<path fill-rule="evenodd" clip-rule="evenodd" d="M482.861 173.789H486.567C490.591 173.789 493.405 173.139 494.973 171.832C496.552 170.526 497.348 168.254 497.348 165.017C497.348 161.898 496.623 159.729 495.206 158.595C493.766 157.443 490.983 156.855 486.86 156.855H482.861V173.789ZM489.186 147.259C497.893 147.259 503.843 148.394 506.98 150.667C510.107 152.95 511.683 157.088 511.683 163.06C511.683 167.765 510.868 171.299 509.286 173.644C507.69 175.979 505.027 177.544 501.309 178.342C505.56 179.083 508.429 180.375 509.977 182.238C511.516 184.087 512.293 187.634 512.293 192.924C512.293 193.265 512.265 193.779 512.223 194.461C512.169 195.162 512.152 195.673 512.152 196.008C512.152 198.811 512.299 201.228 512.615 203.228C512.907 205.235 513.384 207.076 514.046 208.703H498.56C497.873 206.706 497.504 202.654 497.432 196.545C497.41 194.464 497.37 192.856 497.336 191.718C497.245 188.664 496.572 186.526 495.337 185.288C494.107 184.03 492.034 183.394 489.186 183.394H482.861V208.703H468.02V147.259H489.186Z" fill="#004B93"/>
<path fill-rule="evenodd" clip-rule="evenodd" d="M517.635 208.703V147.259H556.053V156.676H532.641V171.361H554.176V180.764H532.641V198.769H556.911V208.703H517.635Z" fill="#004B93"/>
<path fill-rule="evenodd" clip-rule="evenodd" d="M561.023 208.703V147.259H580.937L594.503 179.171C596.114 182.905 597.514 186.526 598.743 190.076C599.984 193.601 601.024 197.096 601.879 200.499C601.555 197.889 601.276 195.086 601.095 192.144C600.896 189.229 600.811 186.052 600.811 182.667L599.964 147.259H613.766V208.703H594.194L579.838 175.078C578.788 172.548 577.657 169.549 576.444 166.016C575.221 162.48 573.983 158.596 572.73 154.339C573.074 158.241 573.347 161.64 573.511 164.599C573.724 167.538 573.818 170.038 573.855 172.083L574.652 208.703H561.023Z" fill="#004B93"/>
<path fill-rule="evenodd" clip-rule="evenodd" d="M665.566 187.586C665.645 187.924 665.696 188.29 665.713 188.664C665.725 189.062 665.728 189.65 665.728 190.419C665.728 196.545 663.791 201.265 659.98 204.602C656.154 207.914 650.691 209.572 643.57 209.572C640.302 209.572 637.229 209.195 634.393 208.461C631.536 207.732 629.257 206.663 627.548 205.401C624.626 203.185 622.544 200.098 621.32 196.088C620.122 192.047 619.494 185.518 619.494 176.55C619.494 170.327 619.875 165.548 620.633 162.142C621.383 158.732 622.643 155.898 624.427 153.649C626.179 151.337 628.712 149.567 631.978 148.364C635.235 147.162 639.058 146.543 643.486 146.543C650.691 146.543 656.115 148.139 659.764 151.275C663.416 154.407 665.253 159.099 665.253 165.298V166.482H650.372V165.298C650.372 162.092 649.79 159.709 648.606 158.138C647.438 156.591 645.609 155.807 643.179 155.807C639.808 155.807 637.488 157.184 636.224 159.93C634.966 162.671 634.335 169.052 634.335 179.032C634.335 187.435 634.991 193.03 636.312 195.804C637.592 198.581 639.958 199.97 643.384 199.97C645.808 199.97 647.62 199.129 648.819 197.443C650.057 195.744 650.679 193.163 650.679 189.718C650.679 189.493 650.667 189.159 650.642 188.673C650.574 188.222 650.568 187.855 650.568 187.586H665.566Z" fill="#004B93"/>
<path fill-rule="evenodd" clip-rule="evenodd" d="M669.951 208.703V147.259H708.378V156.676H684.965V171.361H706.518V180.764H684.965V198.769H709.247V208.703H669.951Z" fill="#004B93"/>
<path fill-rule="evenodd" clip-rule="evenodd" d="M711.534 189.687H726.626V191.314C726.626 194.497 727.247 196.77 728.483 198.107C729.73 199.476 731.788 200.172 734.71 200.172C737 200.172 738.805 199.542 740.166 198.349C741.489 197.136 742.16 195.5 742.16 193.404C742.16 190.471 739.047 187.231 732.777 183.701L731.854 183.209C728.52 181.343 725.867 179.844 723.902 178.639C721.923 177.438 720.449 176.484 719.477 175.706C716.854 173.667 715.081 171.75 714.116 169.921C713.142 168.132 712.653 165.911 712.653 163.248C712.653 158.11 714.675 154.015 718.753 150.954C722.843 147.895 728.338 146.39 735.222 146.39C742.327 146.39 747.678 147.799 751.267 150.619C754.854 153.455 756.661 157.679 756.661 163.248V164.903H741.989V164.553C741.989 161.646 741.379 159.479 740.175 158.019C738.954 156.551 737.147 155.807 734.716 155.807C732.509 155.807 730.775 156.378 729.454 157.528C728.142 158.647 727.492 160.183 727.492 162.125C727.492 165.443 731.598 169.172 739.82 173.38C741.939 174.494 743.577 175.362 744.741 176.018C749.39 178.569 752.631 181.02 754.456 183.342C756.252 185.694 757.186 188.483 757.186 191.723C757.186 197.696 755.158 202.202 751.108 205.215C747.033 208.234 741.049 209.759 733.129 209.759C725.632 209.759 720.162 208.323 716.694 205.457C713.179 202.543 711.424 198.01 711.424 191.868C711.424 191.646 711.452 191.28 711.486 190.794C711.523 190.34 711.534 189.939 711.534 189.687Z" fill="#004B93"/>
<path fill-rule="evenodd" clip-rule="evenodd" d="M409.715 245.346H397.098V232.74H409.715V245.346Z" fill="#B30B17"/>
<path fill-rule="evenodd" clip-rule="evenodd" d="M594.166 245.346H581.568V232.74H594.166V245.346Z" fill="#B30B17"/>
<path fill-rule="evenodd" clip-rule="evenodd" d="M243.418 225.649H246.607V249.132H243.418V225.649Z" fill="#1B1918"/>
<path fill-rule="evenodd" clip-rule="evenodd" d="M259.224 249.132V238.661C259.224 237.087 259.023 235.988 258.614 235.384C258.191 234.827 257.501 234.518 256.512 234.518C255.41 234.518 254.596 234.929 254.087 235.752C253.579 236.565 253.332 237.869 253.332 239.663V249.132H250.534V235.332C250.534 234.986 250.523 234.585 250.495 234.171C250.464 233.751 250.429 233.28 250.375 232.759H253.238L253.358 234.625C253.928 233.858 254.567 233.28 255.254 232.916C255.962 232.529 256.762 232.365 257.682 232.365C259.037 232.365 260.093 232.765 260.888 233.555C261.664 234.341 262.067 235.406 262.067 236.764V249.132H259.224Z" fill="#1B1918"/>
<path fill-rule="evenodd" clip-rule="evenodd" d="M266.201 229.962V228.928C266.201 228.133 266.292 227.566 266.473 227.145C266.635 226.779 266.928 226.421 267.322 226.145C267.763 225.859 268.291 225.634 268.932 225.495C269.56 225.359 270.339 225.305 271.296 225.305H272.006V227.508C270.779 227.557 269.964 227.73 269.558 228.073C269.155 228.434 268.95 229.346 268.95 230.815V232.759H272.006V234.756H268.95V249.132H266.201V234.756H263.932V232.759H266.201V229.962Z" fill="#1B1918"/>
<path fill-rule="evenodd" clip-rule="evenodd" d="M279.715 234.836C278.551 234.836 277.721 235.284 277.204 236.23C276.696 237.193 276.449 238.752 276.449 240.953C276.449 243.193 276.693 244.761 277.202 245.704C277.715 246.656 278.539 247.121 279.715 247.121C280.871 247.121 281.695 246.656 282.206 245.704C282.706 244.761 282.95 243.199 282.95 240.972C282.95 238.726 282.706 237.165 282.206 236.215C281.695 235.282 280.871 234.836 279.715 234.836ZM273.566 240.918C273.566 237.945 274.055 235.778 275.032 234.444C276.012 233.086 277.568 232.399 279.715 232.399C281.868 232.399 283.418 233.086 284.39 234.432C285.344 235.773 285.821 237.945 285.821 240.953C285.821 243.957 285.338 246.127 284.381 247.487C283.407 248.825 281.856 249.541 279.715 249.541C277.551 249.541 275.983 248.825 275.009 247.487C274.053 246.127 273.566 243.952 273.566 240.918Z" fill="#1B1918"/>
<path fill-rule="evenodd" clip-rule="evenodd" d="M291.65 232.752L291.902 234.87C292.198 234.044 292.706 233.416 293.408 232.99C294.089 232.524 294.973 232.325 296.009 232.325C296.06 232.325 296.142 232.328 296.248 232.334C296.364 232.354 296.463 232.356 296.534 232.356V235.23C296.432 235.23 296.31 235.228 296.151 235.222C295.986 235.205 295.878 235.18 295.81 235.18C294.402 235.18 293.41 235.5 292.797 236.111C292.201 236.736 291.902 237.749 291.902 239.186V249.115H289.108V235.486C289.108 235.349 289.057 234.725 288.935 233.615C288.898 233.26 288.872 232.947 288.85 232.752H291.65Z" fill="#1B1918"/>
<path fill-rule="evenodd" clip-rule="evenodd" d="M301.347 234.625C301.917 233.858 302.542 233.28 303.235 232.916C303.936 232.529 304.749 232.365 305.661 232.365C306.697 232.365 307.578 232.629 308.293 233.089C309.043 233.569 309.557 234.231 309.861 235.083C310.338 234.188 310.948 233.529 311.71 233.061C312.47 232.623 313.368 232.365 314.396 232.365C315.753 232.365 316.805 232.759 317.58 233.549C318.335 234.33 318.724 235.398 318.724 236.764V249.132H315.93V238.661C315.93 237.087 315.725 235.988 315.331 235.384C314.913 234.827 314.225 234.518 313.229 234.518C312.141 234.518 311.329 234.932 310.806 235.758C310.301 236.576 310.04 237.877 310.04 239.663V249.132H307.194V238.661C307.194 237.087 306.998 235.988 306.583 235.384C306.183 234.827 305.487 234.518 304.496 234.518C303.391 234.518 302.574 234.929 302.074 235.752C301.566 236.565 301.304 237.869 301.304 239.663V249.132H298.518V235.332C298.518 234.986 298.501 234.585 298.473 234.171C298.453 233.751 298.408 233.28 298.359 232.759H301.211L301.347 234.625Z" fill="#1B1918"/>
<path fill-rule="evenodd" clip-rule="evenodd" d="M330.576 240.578C328.324 240.578 326.754 240.839 325.873 241.351C324.979 241.864 324.519 242.773 324.519 244.014C324.519 244.838 324.774 245.479 325.248 245.999C325.742 246.55 326.365 246.803 327.103 246.803C328.207 246.803 329.062 246.379 329.679 245.522C330.281 244.647 330.576 243.432 330.576 241.813V240.578ZM325.055 237.065H322.034V236.73C322.034 235.301 322.53 234.208 323.508 233.481C324.49 232.745 325.93 232.365 327.85 232.365C329.739 232.365 331.116 232.754 332.001 233.532C332.899 234.285 333.345 235.497 333.345 237.139V244.761C333.345 245.522 333.371 246.272 333.41 246.982C333.467 247.709 333.535 248.416 333.624 249.132H330.834L330.642 247.065C330.088 247.788 329.463 248.331 328.724 248.717C328 249.112 327.216 249.302 326.416 249.302C325.036 249.302 323.911 248.822 323.042 247.916C322.173 246.985 321.738 245.772 321.738 244.292C321.738 242.395 322.341 240.981 323.547 240.033C324.772 239.076 326.575 238.607 328.977 238.607H330.551V237.778C330.551 236.488 330.366 235.594 329.986 235.1C329.605 234.609 328.966 234.375 328.051 234.375C327.051 234.375 326.319 234.58 325.805 235.001C325.305 235.429 325.055 236.062 325.055 236.858V237.065Z" fill="#1B1918"/>
<path fill-rule="evenodd" clip-rule="evenodd" d="M340.645 228.116V232.76H343.92V234.756H340.645V244.58C340.645 245.463 340.779 246.056 341.054 246.394C341.324 246.732 341.812 246.905 342.554 246.905C342.801 246.905 343.23 246.879 343.826 246.84H343.92L343.905 248.976C343.471 249.072 343.068 249.14 342.665 249.183C342.298 249.234 341.94 249.26 341.605 249.26C340.23 249.26 339.26 248.995 338.689 248.433C338.132 247.89 337.86 246.945 337.86 245.565V234.756H335.377V232.76H337.86V229.477L340.645 228.116Z" fill="#1B1918"/>
<path fill-rule="evenodd" clip-rule="evenodd" d="M346.492 232.76H349.19V249.132H346.492V232.76ZM346.492 225.649H349.19V228.662H346.492V225.649Z" fill="#1B1918"/>
<path fill-rule="evenodd" clip-rule="evenodd" d="M358.8 234.836C357.641 234.836 356.797 235.284 356.286 236.23C355.775 237.193 355.528 238.752 355.528 240.953C355.528 243.193 355.773 244.761 356.281 245.704C356.789 246.656 357.627 247.121 358.8 247.121C359.948 247.121 360.782 246.656 361.279 245.704C361.779 244.761 362.032 243.199 362.032 240.972C362.032 238.726 361.779 237.165 361.279 236.215C360.782 235.282 359.948 234.836 358.8 234.836ZM352.648 240.918C352.648 237.945 353.135 235.778 354.114 234.444C355.1 233.086 356.65 232.399 358.8 232.399C360.941 232.399 362.503 233.086 363.469 234.432C364.429 235.773 364.914 237.945 364.914 240.953C364.914 243.957 364.426 246.127 363.463 247.487C362.489 248.825 360.93 249.541 358.8 249.541C356.633 249.541 355.08 248.825 354.103 247.487C353.131 246.127 352.648 243.952 352.648 240.918Z" fill="#1B1918"/>
<path fill-rule="evenodd" clip-rule="evenodd" d="M376.875 249.132V238.661C376.875 237.087 376.662 235.988 376.258 235.384C375.847 234.827 375.137 234.518 374.163 234.518C373.061 234.518 372.252 234.929 371.737 235.752C371.224 236.565 370.985 237.869 370.985 239.663V249.132H368.19V235.332C368.19 234.986 368.176 234.585 368.136 234.171C368.099 233.751 368.071 233.28 368.025 232.759H370.871L371.01 234.625C371.581 233.858 372.206 233.28 372.907 232.916C373.6 232.529 374.399 232.365 375.332 232.365C376.676 232.365 377.743 232.765 378.524 233.555C379.314 234.341 379.703 235.406 379.703 236.764V249.132H376.875Z" fill="#1B1918"/>
<path fill-rule="evenodd" clip-rule="evenodd" d="M427.479 225.649H430.668V249.132H427.479V225.649Z" fill="#1B1918"/>
<path fill-rule="evenodd" clip-rule="evenodd" d="M443.279 249.132V238.661C443.279 237.087 443.061 235.988 442.668 235.384C442.262 234.827 441.563 234.518 440.584 234.518C439.471 234.518 438.656 234.929 438.15 235.752C437.642 236.565 437.392 237.869 437.392 239.663V249.132H434.6V235.332C434.6 234.986 434.592 234.585 434.557 234.171C434.523 233.751 434.486 233.28 434.436 232.759H437.293L437.426 234.625C437.997 233.858 438.627 233.28 439.32 232.916C440.016 232.529 440.819 232.365 441.745 232.365C443.089 232.365 444.139 232.765 444.934 233.555C445.71 234.341 446.122 235.406 446.122 236.764V249.132H443.279Z" fill="#1B1918"/>
<path fill-rule="evenodd" clip-rule="evenodd" d="M453.356 228.116V232.76H456.629V234.756H453.356V244.58C453.356 245.463 453.492 246.056 453.761 246.394C454.028 246.732 454.528 246.905 455.258 246.905C455.511 246.905 455.934 246.879 456.53 246.84H456.629L456.618 248.976C456.167 249.072 455.763 249.14 455.383 249.183C455.008 249.234 454.644 249.26 454.321 249.26C452.926 249.26 451.964 248.995 451.404 248.433C450.839 247.89 450.56 246.945 450.56 245.565V234.756H448.076V232.76H450.56V229.477L453.356 228.116Z" fill="#1B1918"/>
<path fill-rule="evenodd" clip-rule="evenodd" d="M461.516 239.505H467.846V238.102C467.846 236.855 467.591 235.932 467.076 235.301C466.565 234.628 465.81 234.333 464.827 234.333C463.728 234.333 462.905 234.733 462.371 235.577C461.831 236.412 461.541 237.732 461.516 239.505ZM470.586 244.026C470.51 245.743 469.954 247.087 468.914 248.067C467.878 249.041 466.477 249.541 464.719 249.541C462.533 249.541 460.962 248.828 460.017 247.522C459.065 246.193 458.582 243.952 458.582 240.819C458.582 237.877 459.076 235.758 460.053 234.412C461.024 233.086 462.587 232.399 464.719 232.399C466.742 232.399 468.233 232.936 469.175 234.015C470.123 235.074 470.586 236.772 470.586 239.087V241.637H461.499V242.572C461.499 244.148 461.749 245.327 462.263 246.025C462.786 246.76 463.604 247.121 464.736 247.121C465.597 247.121 466.275 246.854 466.815 246.326C467.338 245.772 467.673 245.008 467.803 244.026H470.586Z" fill="#1B1918"/>
<path fill-rule="evenodd" clip-rule="evenodd" d="M476.38 249.132H473.598V225.649H476.38V249.132Z" fill="#1B1918"/>
<path fill-rule="evenodd" clip-rule="evenodd" d="M482.739 249.132H479.949V225.649H482.739V249.132Z" fill="#1B1918"/>
<path fill-rule="evenodd" clip-rule="evenodd" d="M486.59 232.76H489.3V249.132H486.59V232.76ZM486.59 225.649H489.3V228.662H486.59V225.649Z" fill="#1B1918"/>
<path fill-rule="evenodd" clip-rule="evenodd" d="M495.59 240.877C495.59 243.089 495.839 244.676 496.339 245.645C496.831 246.644 497.705 247.121 498.739 247.121C499.923 247.121 500.798 246.638 501.352 245.604C501.906 244.622 502.17 243.04 502.17 240.877C502.17 238.561 501.917 236.903 501.397 235.901C500.874 234.929 500.017 234.421 498.833 234.421C497.716 234.421 496.813 234.895 496.328 235.819C495.837 236.761 495.59 238.448 495.59 240.877ZM493.71 250.98H496.902C496.921 251.699 497.146 252.29 497.668 252.733C497.884 253.168 498.546 253.409 499.248 253.409C500.276 253.409 500.994 253.119 501.419 252.608C501.835 252.071 502.042 251.074 502.042 249.612V247.24C501.46 248.033 500.852 248.615 500.224 248.976C499.574 249.322 498.87 249.541 498.148 249.541C496.257 249.541 494.888 248.791 494.013 247.396C493.142 245.971 492.701 243.739 492.701 240.717C492.701 237.823 493.142 235.728 494.013 234.356C494.888 233.01 496.251 232.325 498.131 232.325C498.915 232.325 499.668 232.484 500.321 232.808C500.951 233.148 501.534 233.635 502.042 234.33L502.201 232.76H505.035C504.978 233.129 504.953 233.555 504.91 234.003C504.89 234.495 504.882 235.009 504.882 235.65V250.004C504.882 251.026 504.813 251.781 504.666 252.346C504.507 252.886 504.276 253.383 503.945 253.787C503.471 254.383 502.851 254.826 502.099 255.09C501.36 255.385 500.386 255.496 499.219 255.496C497.646 255.496 496.194 255.101 495.24 254.335C494.286 253.519 493.772 252.412 493.71 250.98Z" fill="#1B1918"/>
<path fill-rule="evenodd" clip-rule="evenodd" d="M511.107 239.505H517.435V238.102C517.435 236.855 517.176 235.932 516.671 235.301C516.156 234.628 515.413 234.333 514.404 234.333C513.308 234.333 512.507 234.733 511.953 235.577C511.403 236.412 511.124 237.732 511.107 239.505ZM520.184 244.026C520.09 245.743 519.533 247.087 518.5 248.067C517.469 249.041 516.074 249.541 514.296 249.541C512.121 249.541 510.556 248.828 509.602 247.522C508.656 246.193 508.174 243.952 508.174 240.819C508.174 237.877 508.659 235.758 509.645 234.412C510.61 233.086 512.175 232.399 514.296 232.399C516.329 232.399 517.829 232.936 518.753 234.015C519.718 235.074 520.184 236.772 520.184 239.087V241.637H511.09V242.572C511.09 244.148 511.351 245.327 511.857 246.025C512.377 246.76 513.183 247.121 514.325 247.121C515.186 247.121 515.872 246.854 516.392 246.326C516.92 245.772 517.27 245.008 517.398 244.026H520.184Z" fill="#1B1918"/>
<path fill-rule="evenodd" clip-rule="evenodd" d="M531.935 249.132V238.661C531.935 237.087 531.722 235.988 531.319 235.384C530.916 234.827 530.228 234.518 529.248 234.518C528.129 234.518 527.306 234.929 526.817 235.752C526.295 236.565 526.042 237.869 526.042 239.663V249.132H523.268V235.332C523.268 234.986 523.253 234.585 523.222 234.171C523.188 233.751 523.146 233.28 523.086 232.759H525.96L526.073 234.625C526.647 233.858 527.28 233.28 527.99 232.916C528.672 232.529 529.493 232.365 530.393 232.365C531.742 232.365 532.838 232.765 533.611 233.555C534.38 234.341 534.772 235.406 534.772 236.764V249.132H531.935Z" fill="#1B1918"/>
<path fill-rule="evenodd" clip-rule="evenodd" d="M547.112 243.582H549.984C549.941 245.468 549.396 246.92 548.351 247.945C547.32 249.01 545.894 249.541 544.102 249.541C541.944 249.541 540.365 248.828 539.403 247.522C538.47 246.193 537.951 244.011 537.951 240.972C537.951 237.977 538.47 235.778 539.403 234.444C540.362 233.086 541.938 232.399 544.097 232.399C545.792 232.399 547.212 232.862 548.251 233.802C549.327 234.713 549.85 235.963 549.85 237.479V237.817H547.112C547.112 236.855 546.874 236.139 546.363 235.594C545.86 235.068 545.164 234.836 544.247 234.836C543 234.836 542.117 235.273 541.597 236.179C541.095 237.102 540.825 238.689 540.825 240.972C540.825 243.213 541.092 244.809 541.574 245.721C542.086 246.658 542.904 247.121 544.099 247.121C544.989 247.121 545.693 246.792 546.246 246.147C546.789 245.522 547.095 244.647 547.112 243.582Z" fill="#1B1918"/>
<path fill-rule="evenodd" clip-rule="evenodd" d="M555.583 239.505H561.908V238.102C561.908 236.855 561.66 235.932 561.152 235.301C560.627 234.628 559.893 234.333 558.917 234.333C557.789 234.333 556.96 234.733 556.441 235.577C555.893 236.412 555.612 237.732 555.583 239.505ZM564.676 244.026C564.56 245.743 564.026 247.087 562.995 248.067C561.944 249.041 560.558 249.541 558.792 249.541C556.599 249.541 555.034 248.828 554.072 247.522C553.143 246.193 552.666 243.952 552.666 240.819C552.666 237.877 553.158 235.758 554.114 234.412C555.1 233.086 556.648 232.399 558.792 232.399C560.819 232.399 562.299 232.936 563.237 234.015C564.191 235.074 564.676 236.772 564.676 239.087V241.637H555.56V242.572C555.56 244.148 555.822 245.327 556.341 246.025C556.85 246.76 557.676 247.121 558.798 247.121C559.661 247.121 560.363 246.854 560.888 246.326C561.427 245.772 561.734 245.008 561.871 244.026H564.676Z" fill="#1B1918"/>
<path fill-rule="evenodd" clip-rule="evenodd" d="M611.939 225.649H615.135V249.132H611.939V225.649Z" fill="#1B1918"/>
<path fill-rule="evenodd" clip-rule="evenodd" d="M627.766 249.132V238.661C627.766 237.087 627.543 235.988 627.136 235.384C626.736 234.827 626.052 234.518 625.041 234.518C623.955 234.518 623.129 234.929 622.621 235.752C622.11 236.565 621.862 237.869 621.862 239.663V249.132H619.079V235.332C619.079 234.986 619.059 234.585 619.034 234.171C619.011 233.751 618.96 233.28 618.889 232.759H621.764L621.888 234.625C622.459 233.858 623.101 233.28 623.782 232.916C624.495 232.529 625.296 232.365 626.208 232.365C627.556 232.365 628.644 232.765 629.413 233.555C630.189 234.341 630.573 235.406 630.573 236.764V249.132H627.766Z" fill="#1B1918"/>
<path fill-rule="evenodd" clip-rule="evenodd" d="M642.846 249.132V238.661C642.846 237.087 642.614 235.988 642.216 235.384C641.815 234.827 641.12 234.518 640.134 234.518C639.027 234.518 638.211 234.929 637.712 235.752C637.198 236.565 636.922 237.869 636.922 239.663V249.132H634.145V235.332C634.145 234.986 634.139 234.585 634.103 234.171C634.082 233.751 634.051 233.28 634.006 232.759H636.843L636.951 234.625C637.536 233.858 638.181 233.28 638.879 232.916C639.566 232.529 640.367 232.365 641.302 232.365C642.633 232.365 643.707 232.765 644.473 233.555C645.291 234.341 645.672 235.406 645.672 236.764V249.132H642.846Z" fill="#1B1918"/>
<path fill-rule="evenodd" clip-rule="evenodd" d="M654.95 234.836C653.806 234.836 652.968 235.284 652.457 236.23C651.935 237.193 651.699 238.752 651.699 240.953C651.699 243.193 651.935 244.761 652.446 245.704C652.957 246.656 653.786 247.121 654.95 247.121C656.112 247.121 656.95 246.656 657.458 245.704C657.95 244.761 658.188 243.199 658.188 240.972C658.188 238.726 657.95 237.165 657.458 236.215C656.95 235.282 656.112 234.836 654.95 234.836ZM648.811 240.918C648.811 237.945 649.31 235.778 650.284 234.444C651.275 233.086 652.826 232.399 654.95 232.399C657.117 232.399 658.665 233.086 659.634 234.432C660.588 235.773 661.068 237.945 661.068 240.953C661.068 243.957 660.585 246.127 659.631 247.487C658.648 248.825 657.106 249.541 654.95 249.541C652.812 249.541 651.247 248.825 650.262 247.487C649.302 246.127 648.811 243.952 648.811 240.918Z" fill="#1B1918"/>
<path fill-rule="evenodd" clip-rule="evenodd" d="M667.931 249.132L662.854 232.76H666.086L668.647 242.174C668.865 242.966 669.056 243.764 669.229 244.596C669.405 245.414 669.556 246.275 669.675 247.158C670.016 245.641 670.405 244.154 670.839 242.668C670.927 242.427 670.962 242.273 670.975 242.202L673.592 232.76H676.548L671.43 249.132H667.931Z" fill="#1B1918"/>
<path fill-rule="evenodd" clip-rule="evenodd" d="M686.942 240.578C684.667 240.578 683.097 240.839 682.193 241.351C681.305 241.864 680.873 242.773 680.873 244.014C680.873 244.838 681.109 245.479 681.606 245.999C682.085 246.55 682.704 246.803 683.446 246.803C684.55 246.803 685.4 246.379 686.022 245.522C686.624 244.647 686.942 243.432 686.942 241.813V240.578ZM681.404 237.065H678.379V236.73C678.379 235.301 678.854 234.208 679.839 233.481C680.851 232.745 682.296 232.365 684.21 232.365C686.093 232.365 687.467 232.754 688.37 233.532C689.253 234.285 689.673 235.497 689.673 237.139V244.761C689.673 245.522 689.711 246.272 689.781 246.982C689.83 247.709 689.898 248.416 689.963 249.132H687.186L686.996 247.065C686.448 247.788 685.806 248.331 685.082 248.717C684.329 249.112 683.571 249.302 682.779 249.302C681.396 249.302 680.251 248.822 679.385 247.916C678.499 246.985 678.064 245.772 678.064 244.292C678.064 242.395 678.712 240.981 679.885 240.033C681.097 239.076 682.915 238.607 685.318 238.607H686.888V237.778C686.888 236.488 686.714 235.594 686.323 235.1C685.95 234.609 685.312 234.375 684.366 234.375C683.412 234.375 682.673 234.58 682.145 235.001C681.639 235.429 681.404 236.062 681.404 236.858V237.065Z" fill="#1B1918"/>
<path fill-rule="evenodd" clip-rule="evenodd" d="M696.974 228.116V232.76H700.26V234.756H696.974V244.58C696.974 245.463 697.128 246.056 697.395 246.394C697.684 246.732 698.156 246.905 698.88 246.905C699.162 246.905 699.582 246.879 700.16 246.84H700.26L700.252 248.976C699.792 249.072 699.397 249.14 699.019 249.183C698.645 249.234 698.275 249.26 697.963 249.26C696.58 249.26 695.611 248.995 695.049 248.433C694.478 247.89 694.195 246.945 694.195 245.565V234.756H691.721V232.76H694.195V229.477L696.974 228.116Z" fill="#1B1918"/>
<path fill-rule="evenodd" clip-rule="evenodd" d="M702.848 232.76H705.528V249.132H702.848V232.76ZM702.848 225.649H705.528V228.662H702.848V225.649Z" fill="#1B1918"/>
<path fill-rule="evenodd" clip-rule="evenodd" d="M715.13 234.836C713.971 234.836 713.148 235.284 712.628 236.23C712.137 237.193 711.853 238.752 711.853 240.953C711.853 243.193 712.134 244.761 712.625 245.704C713.137 246.656 713.966 247.121 715.13 247.121C716.303 247.121 717.132 246.656 717.637 245.704C718.115 244.761 718.356 243.199 718.356 240.972C718.356 238.726 718.115 237.165 717.637 236.215C717.132 235.282 716.303 234.836 715.13 234.836ZM708.984 240.918C708.984 237.945 709.488 235.778 710.462 234.444C711.452 233.086 712.994 232.399 715.13 232.399C717.282 232.399 718.83 233.086 719.827 234.432C720.795 235.773 721.262 237.945 721.262 240.953C721.262 243.957 720.795 246.127 719.819 247.487C718.814 248.825 717.274 249.541 715.13 249.541C712.969 249.541 711.41 248.825 710.45 247.487C709.488 246.127 708.984 243.952 708.984 240.918Z" fill="#1B1918"/>
<path fill-rule="evenodd" clip-rule="evenodd" d="M733.219 249.132V238.661C733.219 237.087 733.008 235.988 732.605 235.384C732.204 234.827 731.498 234.518 730.52 234.518C729.404 234.518 728.592 234.929 728.075 235.752C727.581 236.565 727.303 237.869 727.303 239.663V249.132H724.534V235.332C724.534 234.986 724.525 234.585 724.48 234.171C724.452 233.751 724.409 233.28 724.369 232.759H727.226L727.34 234.625C727.945 233.858 728.561 233.28 729.257 232.916C729.949 232.529 730.759 232.365 731.67 232.365C733.031 232.365 734.079 232.765 734.897 233.555C735.646 234.341 736.044 235.406 736.044 236.764V249.132H733.219Z" fill="#1B1918"/>
<path fill-rule="evenodd" clip-rule="evenodd" d="M752.727 52.6337C751.861 51.0338 750.799 49.8462 749.555 49.0707C748.305 48.3092 746.817 47.9248 745.091 47.9248C742.821 47.9248 740.892 48.7842 739.313 50.5099C737.727 52.2354 736.938 54.3664 736.938 56.9024C736.938 59.4384 737.727 61.5622 739.327 63.2669C740.913 64.9715 742.876 65.8239 745.217 65.8239C746.929 65.8239 748.431 65.4048 749.744 64.5593C751.05 63.721 752.042 62.5404 752.727 61.0173H755.857C755.005 63.4067 753.663 65.258 751.826 66.5715C750.002 67.8778 747.837 68.5346 745.35 68.5346C742.157 68.5346 739.46 67.4029 737.266 65.1322C735.066 62.8688 733.969 60.1371 733.969 56.9443C733.969 53.6886 735.08 50.9221 737.308 48.6584C739.53 46.3878 742.241 45.2561 745.433 45.2561C747.823 45.2561 749.933 45.8988 751.756 47.1914C753.586 48.4769 754.949 50.2932 755.857 52.6337H752.727Z" fill="#004B93" stroke="#102A83" stroke-width="0.326858"/>
<path d="M745.243 38.5591C755.187 38.5591 763.251 46.6229 763.251 56.5674C763.251 66.5119 755.187 74.5758 745.243 74.5758C735.298 74.5758 727.234 66.5119 727.234 56.5674C727.234 46.6229 735.298 38.5591 745.243 38.5591Z" stroke="#004B93" stroke-width="0.756616"/>
<path fill-rule="evenodd" clip-rule="evenodd" d="M148.91 79.8459C148.91 79.8459 104.688 145.773 106.721 203.486C105.059 204.849 103.32 206.304 101.498 207.858C101.09 208.205 100.67 208.534 100.241 208.855C92.4337 147.371 139.74 74.3018 139.74 74.3018L148.91 79.8459Z" fill="#B30B17"/>
<path fill-rule="evenodd" clip-rule="evenodd" d="M108.557 248.59C106.484 246.556 104.575 244.432 102.787 242.243C104.593 241.555 106.293 240.711 107.864 239.978C108.984 241.68 110.164 243.351 111.429 244.978L108.557 248.59ZM87.9707 214.542C68.5625 154.237 106.7 72.3289 106.7 72.3289L116.54 76.5269C116.54 76.5269 81.3276 152.169 95.7973 211.589C93.352 212.82 90.7131 213.776 87.9707 214.542Z" fill="#004B93"/>
<path fill-rule="evenodd" clip-rule="evenodd" d="M114.183 36.6348L119.033 46.458L129.854 48.0345L122.022 55.6747L123.869 66.4671L114.183 61.3696L104.483 66.4671L106.33 55.6747L98.498 48.0345L109.341 46.458L114.183 36.6348Z" fill="#B30B17"/>
<path fill-rule="evenodd" clip-rule="evenodd" d="M157.326 43.5649L162.168 53.3858L173.02 54.9507L165.178 62.605L167.02 73.3916L157.326 68.3032L147.61 73.3916L149.496 62.605L141.635 54.9507L152.473 53.3858L157.326 43.5649Z" fill="#004B93"/>
<path fill-rule="evenodd" clip-rule="evenodd" d="M144.232 1.96289L149.072 11.7836L159.914 13.3601L152.061 21.002L153.924 31.7978L144.232 26.6977L134.529 31.7978L136.394 21.002L128.535 13.3601L139.394 11.7836L144.232 1.96289Z" fill="#004B93"/>
<path fill-rule="evenodd" clip-rule="evenodd" d="M192.523 142.391C181.062 118.126 146.504 109.103 107.751 117.367C141.36 111.056 170.915 119.34 180.925 140.529C194.231 168.807 167.669 209.382 121.504 231.142C75.3653 252.864 27.1359 247.6 13.8098 219.313C2.81313 196.014 18.9387 164.405 50.7412 141.81C13.5037 167.029 -5.70514 203.359 6.82077 229.927C21.6389 261.367 75.2247 267.247 126.487 243.073C177.755 218.898 207.315 173.819 192.523 142.391Z" fill="#004B93"/>
<path fill-rule="evenodd" clip-rule="evenodd" d="M119.902 112.15L117.076 118.473L127.974 117.921L131.021 111.176L119.902 112.15Z" fill="#B30B17"/>
</svg>
